<svg fill="none" viewBox="0 0 769 193" xmlns="http://www.w3.org/2000/svg">
  <path fill="#fff" d="M0 0h768v193H0z" />
  <mask id="a" width="32" height="32" x="720" y="11" maskUnits="userSpaceOnUse">
    <circle cx="736" cy="27" r="16" fill="#fff" />
  </mask>
  <g mask="url(#a)">
    <circle cx="736" cy="27" r="16" fill="#EEE" />
    <circle cx="736" cy="22.9" r="6.5" fill="#C4C4C4" />
    <ellipse cx="736" cy="39.3" fill="#C4C4C4" rx="11.2" ry="7.8" />
  </g>
  <path fill="#EEE" d="M15 24h186v7H15z" />
  <path stroke="#EEE" d="M0 54.5h768" />
  <path fill="#E5E5E5" d="M423 107h108v14H423z" />
  <path
    fill="#000"
    d="M242.4 122h3.1l3.5-12.2h.2l3.4 12.2h3.2l4.9-17.5h-3.4l-3.2 12.9h-.1l-3.4-12.9h-3l-3.4 12.9h-.2l-3.1-12.9h-3.4l4.9 17.5zm24.8.3c3 0 5.2-1.5 5.7-3.8l-2.9-.3c-.4 1-1.4 1.7-2.7 1.7-2 0-3.4-1.4-3.4-3.6h9.1v-1c0-4.5-2.7-6.6-6-6.6-3.7 0-6.1 2.8-6.1 6.8 0 4.1 2.4 6.8 6.3 6.8zm-3.3-8c.1-1.8 1.3-3.2 3.2-3.2 1.8 0 3 1.3 3 3.1h-6.2zm14.8-9.8h-3V122h3v-17.5zm9 17.8c3.2 0 5.3-2 5.5-4.8h-3a2.6 2.6 0 01-2.6 2.2c-1.9 0-3.1-1.6-3.1-4.2 0-2.7 1.2-4.3 3.1-4.3 1.5 0 2.4 1 2.7 2.2h3c-.3-2.8-2.5-4.7-5.7-4.7-3.8 0-6.3 2.8-6.3 6.8s2.4 6.8 6.3 6.8zm13.8 0c3.8 0 6.2-2.7 6.2-6.8 0-4-2.4-6.8-6.2-6.8-3.9 0-6.3 2.7-6.3 6.8 0 4 2.4 6.8 6.3 6.8zm0-2.5c-2.1 0-3.2-2-3.2-4.3 0-2.4 1-4.3 3.2-4.3 2 0 3.1 1.9 3.1 4.3s-1 4.3-3.1 4.3zm8.9 2.2h3v-8c0-1.6 1.1-2.7 2.4-2.7 1.3 0 2.2 1 2.2 2.3v8.4h3v-8.2c0-1.4 1-2.5 2.4-2.5 1.3 0 2.3.8 2.3 2.4v8.3h3v-8.8c0-3-1.6-4.5-4-4.5-2 0-3.4 1-4 2.4h-.1c-.5-1.4-1.8-2.4-3.5-2.4-1.8 0-3.1 1-3.6 2.4h-.2V109h-3v13zm27.3.3c3 0 5.1-1.5 5.7-3.8l-2.9-.3c-.4 1-1.4 1.7-2.8 1.7-2 0-3.3-1.4-3.3-3.6h9.1v-1c0-4.5-2.8-6.6-6-6.6-3.7 0-6.2 2.8-6.2 6.8 0 4.1 2.4 6.8 6.4 6.8zm-3.3-8c0-1.8 1.3-3.2 3.2-3.2 1.7 0 3 1.3 3 3.1h-6.2zm17.8 7.7h3v-2h.2a4 4 0 003.8 2.2c3 0 5.4-2.4 5.4-6.7 0-4.4-2.4-6.8-5.4-6.8a3.9 3.9 0 00-3.8 2.4h-.1v-6.6h-3V122zm3-6.5c0-2.6 1.1-4.2 3.1-4.2s3.1 1.7 3.1 4.2c0 2.4-1 4.2-3 4.2s-3.2-1.7-3.2-4.2zm15.8 6.8c2 0 3.2-1 3.8-2.1h.1v1.8h3v-8.8c0-3.4-2.9-4.5-5.4-4.5-2.7 0-4.8 1.3-5.5 3.7l2.9.4c.3-1 1.2-1.7 2.7-1.7 1.4 0 2.2.7 2.2 2 0 1-1 1-3.3 1.2-2.5.3-5 1-5 4 0 2.6 2 4 4.5 4zm.8-2.3c-1.3 0-2.3-.6-2.3-1.7 0-1.2 1-1.7 2.5-1.9.8-.1 2.4-.3 2.8-.6v1.5c0 1.5-1.2 2.7-3 2.7zm14.9 2.3c3.3 0 5.4-2 5.6-4.8h-3a2.6 2.6 0 01-2.6 2.2c-2 0-3.2-1.6-3.2-4.2 0-2.7 1.3-4.3 3.2-4.3 1.5 0 2.4 1 2.6 2.2h3c-.2-2.8-2.4-4.7-5.6-4.7-3.9 0-6.3 2.8-6.3 6.8s2.4 6.8 6.3 6.8zm8.1-.3h3.1v-4.4l1.1-1.2 4 5.6h3.7l-5.3-7.4 5-5.7h-3.6l-4.7 5.3h-.2v-9.7h-3V122zm17.3-2.4h-2.7v1c-.2 2.3-.8 4.6-1 5.7h2c.4-1.1 1.4-3.6 1.6-5.7l.1-1z"
  />
  <path
    fill="#EEE"
    fill-rule="evenodd"
    d="M5 1h758a4 4 0 014 4v173h1V5a5 5 0 00-5-5H5a5 5 0 00-5 5v173h1V5a4 4 0 014-4z"
    clip-rule="evenodd"
  />
</svg>
