<svg
  width="24"
  height="20"
  viewBox="0 0 24 20"
  fill="none"
  stroke="currentColor"
  xmlns="http://www.w3.org/2000/svg"
>
  <path
    d="M1.25 13.3476C1.25 14.6938 1.78478 15.9849 2.73669 16.9368C3.6886 17.8887 4.97966 18.4235 6.32587 18.4235H19.0155C20.0057 18.4245 20.9648 18.0782 21.7259 17.4448C22.487 16.8114 23.0017 15.9311 23.1805 14.9572C23.3592 13.9833 23.1907 12.9776 22.7042 12.1152C22.2176 11.2528 21.444 10.5884 20.518 10.2378C20.7273 9.64249 20.766 9.00052 20.6297 8.38439C20.4934 7.76826 20.1875 7.20252 19.7466 6.75106C19.3057 6.29961 18.7473 5.98043 18.1346 5.82958C17.5219 5.67872 16.8792 5.7022 16.2791 5.89737C15.8909 4.40847 14.9385 3.1291 13.6236 2.33018C12.3086 1.53126 10.7343 1.27552 9.23401 1.61712C7.73376 1.95872 6.42536 2.87083 5.5859 4.16031C4.74643 5.44979 4.44182 7.01538 4.73656 8.52554C3.72204 8.86038 2.83897 9.50665 2.21299 10.3724C1.58702 11.2381 1.25004 12.2793 1.25 13.3476Z"
    stroke-width="2"
    stroke-linecap="round"
    stroke-linejoin="round"
  />
</svg>
