<svg
  width="24"
  height="23"
  viewBox="0 0 24 23"
  fill="currentColor"
  xmlns="http://www.w3.org/2000/svg"
>
  <path
    d="M23.2585 14.1175H21.391V11.4637C21.39 11.0208 21.2136 10.5964 20.9005 10.2833C20.5873 9.97015 20.1629 9.79377 19.7201 9.79274H12.7415V6.45086H14.609C14.7393 6.45086 14.8643 6.39908 14.9565 6.30691C15.0487 6.21475 15.1004 6.08974 15.1004 5.9594V1.24145C15.1004 1.11111 15.0487 0.986109 14.9565 0.893943C14.8643 0.801778 14.7393 0.75 14.609 0.75H9.89103C9.76068 0.75 9.63568 0.801778 9.54352 0.893943C9.45135 0.986109 9.39957 1.11111 9.39957 1.24145V5.9594C9.39957 6.08974 9.45135 6.21475 9.54352 6.30691C9.63568 6.39908 9.76068 6.45086 9.89103 6.45086H11.7585V9.79274H4.77991C4.33707 9.79377 3.91267 9.97015 3.59953 10.2833C3.28639 10.5964 3.11001 11.0208 3.10897 11.4637V14.1175H1.24145C1.11111 14.1175 0.986109 14.1693 0.893943 14.2615C0.801778 14.3536 0.75 14.4786 0.75 14.609V21.6859C0.75 21.8162 0.801778 21.9412 0.893943 22.0334C0.986109 22.1256 1.11111 22.1774 1.24145 22.1774H5.9594C6.08974 22.1774 6.21475 22.1256 6.30691 22.0334C6.39908 21.9412 6.45085 21.8162 6.45085 21.6859V14.609C6.45085 14.4786 6.39908 14.3536 6.30691 14.2615C6.21475 14.1693 6.08974 14.1175 5.9594 14.1175H4.09188V11.4637C4.09291 11.2815 4.16573 11.1071 4.29454 10.9783C4.42335 10.8495 4.59775 10.7767 4.77991 10.7756H11.7585V14.1175H9.89103C9.76068 14.1175 9.63568 14.1693 9.54352 14.2615C9.45135 14.3536 9.39957 14.4786 9.39957 14.609V21.6859C9.39957 21.8162 9.45135 21.9412 9.54352 22.0334C9.63568 22.1256 9.76068 22.1774 9.89103 22.1774H14.609C14.7393 22.1774 14.8643 22.1256 14.9565 22.0334C15.0487 21.9412 15.1004 21.8162 15.1004 21.6859V14.609C15.1004 14.4786 15.0487 14.3536 14.9565 14.2615C14.8643 14.1693 14.7393 14.1175 14.609 14.1175H12.7415V10.7756H19.7201C19.9022 10.7767 20.0767 10.8495 20.2055 10.9783C20.3343 11.1071 20.4071 11.2815 20.4081 11.4637V14.1175H18.5406C18.4103 14.1175 18.2853 14.1693 18.1931 14.2615C18.1009 14.3536 18.0491 14.4786 18.0491 14.609V21.6859C18.0491 21.8162 18.1009 21.9412 18.1931 22.0334C18.2853 22.1256 18.4103 22.1774 18.5406 22.1774H23.2585C23.3889 22.1774 23.5139 22.1256 23.6061 22.0334C23.6982 21.9412 23.75 21.8162 23.75 21.6859V14.609C23.75 14.4786 23.6982 14.3536 23.6061 14.2615C23.5139 14.1693 23.3889 14.1175 23.2585 14.1175ZM10.3825 1.73291H14.1175V5.46795H10.3825V1.73291ZM5.46795 21.1944H1.73291V15.1004H5.46795V21.1944ZM14.1175 21.1944H10.3825V15.1004H14.1175V21.1944ZM22.7671 21.1944H19.0321V15.1004H22.7671V21.1944Z"
  />
</svg>
