<svg
  width="24"
  height="24"
  viewBox="0 0 24 24"
  fill="none"
  stroke="currentColor"
  xmlns="http://www.w3.org/2000/svg"
>
  <path
    d="M3.13278 1C1.71967 4.49497 0.995465 8.23015 1.00001 12C1.00001 15.8903 1.75778 19.6022 3.13278 23M21.1667 1C22.3485 4.39777 23 8.10966 23 12C23 15.8903 22.3485 19.6022 21.1667 23M7.41667 8.19277L9.18155 7.10499C9.29925 7.03251 9.43181 6.98758 9.56933 6.97357C9.70684 6.95955 9.84574 6.97682 9.97564 7.02408C10.1055 7.07134 10.2231 7.14736 10.3194 7.24645C10.4158 7.34555 10.4885 7.46516 10.5321 7.59633L13.4679 16.4037C13.5117 16.5345 13.5844 16.6538 13.6808 16.7527C13.7771 16.8515 13.8945 16.9273 14.0242 16.9744C14.154 17.0215 14.2926 17.0388 14.43 17.0248C14.5673 17.0108 14.6996 16.966 14.8172 16.8938L16.5833 15.8072M6.5 16.7239L6.76033 16.8339C7.20249 17.0214 7.69622 17.0486 8.15633 16.9109C8.61643 16.7733 9.01405 16.4793 9.28055 16.0798L14.7194 7.92022C14.9859 7.52065 15.3835 7.22658 15.8435 7.0887C16.3036 6.95081 16.7973 6.97776 17.2397 7.16488L17.5 7.27488"
    stroke-width="2"
    stroke-linecap="round"
    stroke-linejoin="round"
  />
</svg>
