<svg
  width="24"
  height="20"
  viewBox="0 0 24 20"
  stroke="currentColor"
  fill="none"
  xmlns="http://www.w3.org/2000/svg"
>
  <path
    d="M2.51923 18.4231H21.9808M2.51923 18.4231C2.18261 18.4231 1.85978 18.2894 1.62175 18.0513C1.38372 17.8133 1.25 17.4905 1.25 17.1538M2.51923 18.4231H10.9808C11.6814 18.4231 12.25 17.8545 12.25 17.1538M21.9808 18.4231C22.6814 18.4231 23.25 17.8545 23.25 17.1538M21.9808 18.4231H13.5192C13.1826 18.4231 12.8598 18.2894 12.6217 18.0513C12.3837 17.8133 12.25 17.4905 12.25 17.1538M1.25 17.1538V2.76923M1.25 17.1538V15.4615C1.25 14.7609 1.81862 14.1923 2.51923 14.1923M12.25 17.1538V15.4615M1.25 2.76923C1.25 2.06862 1.81862 1.5 2.51923 1.5H21.9808C22.6814 1.5 23.25 2.06862 23.25 2.76923M1.25 2.76923V4.46154C1.25 5.16215 1.81862 5.73077 2.51923 5.73077M2.51923 14.1923C1.81862 14.1923 1.25 13.6237 1.25 12.9231V11.2308C1.25 10.5302 1.81862 9.96154 2.51923 9.96154M2.51923 14.1923H10.9808M23.25 17.1538V2.76923M23.25 17.1538V15.4615C23.25 14.7609 22.6814 14.1923 21.9808 14.1923M23.25 2.76923V4.46154C23.25 5.16215 22.6814 5.73077 21.9808 5.73077M21.9808 14.1923C22.6814 14.1923 23.25 13.6237 23.25 12.9231V11.2308C23.25 10.5302 22.6814 9.96154 21.9808 9.96154M21.9808 14.1923H13.5192M21.9808 5.73077H2.51923M21.9808 5.73077H13.5192C12.8186 5.73077 12.25 6.29938 12.25 7M21.9808 5.73077C22.6814 5.73077 23.25 6.29938 23.25 7V8.69231C23.25 9.39292 22.6814 9.96154 21.9808 9.96154M2.51923 5.73077H10.9808C11.6814 5.73077 12.25 6.29938 12.25 7M2.51923 5.73077C1.81862 5.73077 1.25 6.29938 1.25 7V8.69231C1.25 9.39292 1.81862 9.96154 2.51923 9.96154M12.25 7V8.69231M2.51923 9.96154H10.9808M21.9808 9.96154H13.5192M10.9808 9.96154C11.6814 9.96154 12.25 9.39292 12.25 8.69231M10.9808 9.96154C11.6814 9.96154 12.25 10.5302 12.25 11.2308M12.25 8.69231C12.25 9.39292 12.8186 9.96154 13.5192 9.96154M13.5192 9.96154C12.8186 9.96154 12.25 10.5302 12.25 11.2308M12.25 11.2308V12.9231M10.9808 14.1923C11.6814 14.1923 12.25 13.6237 12.25 12.9231M10.9808 14.1923C11.6814 14.1923 12.25 14.7609 12.25 15.4615M12.25 12.9231C12.25 13.6237 12.8186 14.1923 13.5192 14.1923M13.5192 14.1923C12.8186 14.1923 12.25 14.7609 12.25 15.4615"
    stroke-width="1.5"
    stroke-linecap="round"
    stroke-linejoin="round"
  />
</svg>
