<svg viewBox="0 0 37 24" fill="none" xmlns="http://www.w3.org/2000/svg">
  <path
    fill-rule="evenodd"
    clip-rule="evenodd"
    d="M18.1111 1C13.5481 1 10.6963 3.44445 9.55555 8.33331C11.2666 5.88887 13.263 4.97222 15.5445 5.58331C16.8461 5.93199 17.7765 6.94379 18.8064 8.06381C20.4841 9.88829 22.4257 12 26.6666 12C31.2297 12 34.0814 9.55553 35.2222 4.66666C33.5111 7.11108 31.5148 8.02776 29.2334 7.41664C27.9316 7.06796 27.0013 6.05618 25.9714 4.93616C24.2939 3.11166 22.3521 1 18.1111 1ZM9.55555 12C4.99259 12 2.14074 14.4444 1 19.3334C2.71111 16.8889 4.70741 15.9721 6.98889 16.5833C8.29061 16.9319 9.22101 17.9437 10.2508 19.0637C11.9285 20.8883 13.8702 23 18.1111 23C22.6741 23 25.5259 20.5555 26.6666 15.6666C24.9555 18.111 22.9593 19.0278 20.6778 18.4166C19.376 18.068 18.4456 17.0562 17.4158 15.9361C15.7382 14.1116 13.7965 12 9.55555 12Z"
    stroke="currentColor"
    stroke-width="2"
    stroke-linejoin="round"
  />
</svg>
