<svg viewBox="0 0 22 24" fill="currentColor" xmlns="http://www.w3.org/2000/svg">
  <path
    fill-rule="evenodd"
    clip-rule="evenodd"
    d="M21.2953 7.0593C21.2951 6.65684 21.209 6.3012 21.035 5.99598C20.864 5.69585 20.6079 5.44429 20.2645 5.24539C19.0505 4.54539 17.836 3.84631 16.6215 3.14723L16.6182 3.14533C14.9975 2.21243 13.3767 1.27954 11.7572 0.344467C10.9931 -0.0966561 10.2523 -0.0805743 9.49388 0.366881C8.81382 0.76795 6.49169 2.1029 4.38515 3.31391L4.38492 3.31404C2.99605 4.11247 1.70093 4.85701 1.03198 5.24448C0.338633 5.64585 0.00124988 6.26012 0.00108323 7.05854C0.000541613 8.70234 0.000541613 10.3461 0.000541613 11.9899C0.000541613 13.6337 0.000541613 15.2775 0 16.9213C0.00016665 17.3149 0.0825751 17.6637 0.248975 17.9643C0.420041 18.2735 0.679682 18.532 1.03106 18.7354C1.69773 19.1215 2.98636 19.8622 4.36992 20.6575L4.37044 20.6578L4.37063 20.6579C6.48106 21.8709 8.81214 23.2108 9.49355 23.6129C10.2523 24.0606 10.9932 24.0766 11.7575 23.6353C13.3994 22.6873 15.0426 21.7416 16.6858 20.7958L16.6881 20.7944C17.8807 20.1081 19.0733 19.4217 20.2654 18.7344C20.6168 18.5311 20.8764 18.2724 21.0475 17.9635C21.2136 17.6628 21.2962 17.3141 21.2964 16.9204C21.2964 16.9204 21.2964 10.347 21.2953 7.0593ZM20.7253 12.3872H19.9152V13.1974H19.1049V12.3872H18.2949V11.5772H19.1049V10.7671H19.9152V11.5772H20.7253V12.3872ZM17.7693 12.3872H16.9593V13.1974H16.1492V12.3872H15.3391V11.5772H16.1492V10.7671H16.9593V11.5772H17.7693V12.3872ZM10.6482 15.5115C11.9653 15.5115 13.1129 14.7877 13.7169 13.7166L16.7904 15.4974C15.5718 17.6267 13.2775 19.0621 10.6482 19.0621C8.02369 19.0621 5.73301 17.6325 4.51263 15.5094C3.91686 14.4729 3.57597 13.2713 3.57597 11.9899C3.57597 8.08411 6.74224 4.91776 10.6482 4.91776C13.2644 4.91776 15.5486 6.33862 16.7721 8.45057L13.694 10.2231C13.0839 9.17417 11.9488 8.46832 10.6482 8.46832C8.70329 8.46832 7.12653 10.045 7.12653 11.9899C7.1259 12.6029 7.28605 13.2053 7.59099 13.737C8.19801 14.7968 9.33915 15.5115 10.6482 15.5115Z"
  />
</svg>
