<svg viewBox="0 0 22 24" fill="currentColor" xmlns="http://www.w3.org/2000/svg">
  <path
    fill-rule="evenodd"
    clip-rule="evenodd"
    d="M21.2974 7.0377C21.2973 6.6352 21.2112 6.27953 21.0371 5.97428C20.8661 5.67411 20.61 5.42253 20.2665 5.22361C19.0514 4.52296 17.8357 3.82323 16.6201 3.12349C14.9991 2.19045 13.3782 1.25741 11.7584 0.322198C10.9943 -0.118969 10.2533 -0.102885 9.49483 0.344615C8.81468 0.745735 6.49221 2.08088 4.38542 3.29203L4.38537 3.29206C2.99635 4.09058 1.7011 4.8352 1.03208 5.2227C0.338667 5.62411 0.00125 6.23845 0.00108333 7.03695C0.000541667 8.68091 0.000541667 10.3248 0.000541667 11.9688C0.000541667 13.6127 0.000541667 15.2567 0 16.9007C0 17.2944 0.0825833 17.6431 0.249 17.9438C0.420083 18.253 0.67975 18.5115 1.03117 18.7149C1.69787 19.1011 2.98654 19.8418 4.37017 20.6371L4.37096 20.6376L4.37111 20.6377C6.48174 21.8508 8.81303 23.1909 9.4945 23.5929C10.2533 24.0407 10.9943 24.0567 11.7587 23.6154C13.4005 22.6674 15.0435 21.7217 16.6867 20.776L16.6899 20.7741C17.8826 20.0877 19.0752 19.4013 20.2674 18.7139C20.6188 18.5106 20.8785 18.2519 21.0496 17.9429C21.2158 17.6423 21.2985 17.2935 21.2985 16.8998C21.2985 16.8998 21.2985 10.3257 21.2974 7.0377ZM16.8243 9.69116V10.814H17.9472V9.69116H18.5086V10.814H19.6314V11.3754H18.5086V12.4982H19.6314V13.0596H18.5086V14.1824H17.9472V13.0596H16.8243V14.1824H16.2629V13.0596H15.1401V12.4982H16.2629V11.3754H15.1401V10.814H16.2629V9.69116H16.8243ZM17.9472 11.3754H16.8243V12.4982H17.9472V11.3754ZM17.5599 8.00683C16.1903 5.64268 13.6334 4.05215 10.7047 4.05215C6.33238 4.05215 2.78802 7.5966 2.78802 11.9688C2.78802 13.4032 3.16961 14.7483 3.83653 15.9085C5.20263 18.2852 7.76686 19.8855 10.7047 19.8855L10.7929 19.885C13.6875 19.8534 16.2094 18.2678 17.564 15.9237L14.1235 13.9305C14.129 13.9209 14.1344 13.9113 14.1399 13.9017L14.1234 13.9305L14.1235 13.9305C13.4432 15.1136 12.1673 15.9109 10.7047 15.9109C9.23939 15.9109 7.96199 15.1108 7.28248 13.9246C6.95238 13.3481 6.76257 12.6807 6.76257 11.9688C6.76257 9.79164 8.52761 8.02669 10.7047 8.02669L10.7497 8.02695C12.1774 8.04292 13.4219 8.81863 14.1008 9.96809L17.5465 7.98407L17.5599 8.00683Z"
  />
</svg>
