<svg
  xmlns="http://www.w3.org/2000/svg"
  viewBox="0 0 207 78"
  fill="currentColor"
>
  <path
    d="M16.2 24.1C15.8 24.1 15.7 23.9 15.9 23.6L18 20.9C18.2 20.6 18.7 20.4 19.1 20.4H54.8C55.2 20.4 55.3 20.7 55.1 21L53.4 23.6C53.2 23.9 52.7 24.2 52.4 24.2L16.2 24.1Z"
  />
  <path
    d="M1.10001 33.3C0.700013 33.3 0.600012 33.1 0.800012 32.8L2.90001 30.1C3.10001 29.8 3.60001 29.6 4.00001 29.6H49.6C50 29.6 50.2 29.9 50.1 30.2L49.3 32.6C49.2 33 48.8 33.2 48.4 33.2L1.10001 33.3Z"
  />
  <path
    d="M25.3 42.5C24.9 42.5 24.8 42.2 25 41.9L26.4 39.4C26.6 39.1 27 38.8 27.4 38.8H47.4C47.8 38.8 48 39.1 48 39.5L47.8 41.9C47.8 42.3 47.4 42.6 47.1 42.6L25.3 42.5Z"
  />
  <path
    d="M129.1 22.3C122.8 23.9 118.5 25.1 112.3 26.7C110.8 27.1 110.7 27.2 109.4 25.7C107.9 24 106.8 22.9 104.7 21.9C98.4 18.8 92.3 19.7 86.6 23.4C79.8 27.8 76.3 34.3 76.4 42.4C76.5 50.4 82 57 89.9 58.1C96.7 59 102.4 56.6 106.9 51.5C107.8 50.4 108.6 49.2 109.6 47.8C106 47.8 101.5 47.8 90.3 47.8C88.2 47.8 87.7 46.5 88.4 44.8C89.7 41.7 92.1 36.5 93.5 33.9C93.8 33.3 94.5 32.3 96 32.3C101.1 32.3 119.9 32.3 132.4 32.3C132.2 35 132.2 37.7 131.8 40.4C130.7 47.6 128 54.2 123.6 60C116.4 69.5 107 75.4 95.1 77C85.3 78.3 76.2 76.4 68.2 70.4C60.8 64.8 56.6 57.4 55.5 48.2C54.2 37.3 57.4 27.5 64 18.9C71.1 9.59999 80.5 3.69999 92 1.59999C101.4 -0.100012 110.4 0.99999 118.5 6.49999C123.8 9.99999 127.6 14.8 130.1 20.6C130.7 21.5 130.3 22 129.1 22.3Z"
  />
  <path
    d="M162.2 77.6C153.1 77.4 144.8 74.8 137.8 68.8C131.9 63.7 128.2 57.2 127 49.5C125.2 38.2 128.3 28.2 135.1 19.3C142.4 9.7 151.2 4.7 163.1 2.6C173.3 0.8 182.9 1.8 191.6 7.7C199.5 13.1 204.4 20.4 205.7 30C207.4 43.5 203.5 54.5 194.2 63.9C187.6 70.6 179.5 74.8 170.2 76.7C167.5 77.2 164.8 77.3 162.2 77.6ZM186 37.2C185.9 35.9 185.9 34.9 185.7 33.9C183.9 24 174.8 18.4 165.3 20.6C156 22.7 150 28.6 147.8 38C146 45.8 149.8 53.7 157 56.9C162.5 59.3 168 59 173.3 56.3C181.2 52.2 185.5 45.8 186 37.2Z"
  />
</svg>
