<svg viewBox="0 0 24 24" fill="currentColor" xmlns="http://www.w3.org/2000/svg">
  <path
    d="M21.8182 0H2.18182C0.976364 0 0 0.976364 0 2.18182V21.8182C0 23.0236 0.976364 24 2.18182 24H21.8182C23.0236 24 24 23.0236 24 21.8182V2.18182C24 0.976364 23.0236 0 21.8182 0ZM12 17.8691C12 19.8076 10.8109 20.8942 8.83636 20.8942C6.88582 20.8942 5.64327 19.7542 5.64327 17.9105H7.75636C7.76182 18.5945 8.16982 19.0265 8.80036 19.0265C9.44836 19.0265 9.79636 18.6185 9.79636 17.8505V11.9978H12V17.8691ZM17.9793 20.8942C15.7876 20.8942 14.4087 19.8622 14.3716 18.1931H16.4727C16.5262 18.8236 17.1556 19.2251 18.0687 19.2251C18.8913 19.2251 19.4564 18.8291 19.4564 18.2585C19.4564 17.7785 19.0778 17.52 18.0873 17.3225L16.9473 17.0945C15.3622 16.7945 14.5462 15.9305 14.5462 14.568C14.5462 12.8749 15.9033 11.7644 17.9913 11.7644C20.0204 11.7644 21.4244 12.8629 21.4604 14.4655H19.4258C19.3778 13.8535 18.7953 13.4269 18.0196 13.4269C17.2462 13.4269 16.7367 13.7935 16.7367 14.3695C16.7367 14.844 17.1207 15.12 18.0327 15.3L19.1476 15.516C20.8593 15.8465 21.6273 16.62 21.6273 17.9945C21.6284 19.8022 20.2484 20.8942 17.9793 20.8942Z"
  />
</svg>
