<svg xmlns="http://www.w3.org/2000/svg" viewBox="0 0 30 30" fill="currentColor">
  <path
    d="M24,4H6C4.895,4,4,4.895,4,6v18c0,1.105,0.895,2,2,2h18c1.105,0,2-0.895,2-2V6C26,4.895,25.105,4,24,4z M15,20.38 c0,1.777-1.09,2.773-2.9,2.773c-1.788,0-2.927-1.045-2.927-2.735h1.937c0.005,0.627,0.379,1.023,0.957,1.023 c0.594,0,0.913-0.374,0.913-1.078v-5.365H15V20.38z M20.481,23.153c-2.009,0-3.273-0.946-3.307-2.476H19.1 c0.049,0.578,0.626,0.946,1.463,0.946c0.754,0,1.272-0.363,1.272-0.886c0-0.44-0.347-0.677-1.255-0.858l-1.045-0.209 c-1.453-0.275-2.201-1.067-2.201-2.316c0-1.552,1.244-2.57,3.158-2.57c1.86,0,3.147,1.007,3.18,2.476h-1.865 c-0.044-0.561-0.578-0.952-1.289-0.952c-0.709,0-1.176,0.336-1.176,0.864c0,0.435,0.352,0.688,1.188,0.853l1.022,0.198 c1.569,0.303,2.273,1.012,2.273,2.272C23.826,22.152,22.561,23.153,20.481,23.153z"
  />
</svg>
