<svg
  viewBox="0 0 30 10"
  fill="currentColor"
  stroke="none"
  xmlns="http://www.w3.org/2000/svg"
>
  <path d="M30 0V10H28L26 4V10H24V0H26L28 6V0H30Z" />
  <path
    d="M20.3335 10H17.6665C17.2247 9.9995 16.8011 9.82376 16.4887 9.51134C16.1762 9.19892 16.0005 8.77533 16 8.3335V1.6665C16.0005 1.22467 16.1762 0.801082 16.4887 0.488662C16.8011 0.176241 17.2247 0.000502876 17.6665 0H20.3335C20.7753 0.000502876 21.1989 0.176241 21.5113 0.488662C21.8238 0.801082 21.9995 1.22467 22 1.6665V8.3335C21.9995 8.77533 21.8238 9.19892 21.5113 9.51134C21.1989 9.82376 20.7753 9.9995 20.3335 10ZM18 8H20V2H18V8Z"
  />
  <path
    d="M12.3335 10H8V8H12V6H10C9.46973 5.99947 8.96133 5.78859 8.58637 5.41363C8.21141 5.03867 8.00053 4.53027 8 4V1.6665C8.0005 1.22467 8.17624 0.801082 8.48866 0.488662C8.80108 0.176241 9.22467 0.000502876 9.6665 0H14V2H10V4H12C12.5303 4.00053 13.0387 4.21141 13.4136 4.58637C13.7886 4.96133 13.9995 5.46973 14 6V8.3335C13.9995 8.77533 13.8238 9.19892 13.5113 9.51134C13.1989 9.82376 12.7753 9.9995 12.3335 10Z"
  />
  <path
    d="M4.3335 10H1.6665C1.22467 9.9995 0.801082 9.82376 0.488662 9.51134C0.176242 9.19892 0.000502876 8.77533 0 8.3335V6H2V8H4V0H6V8.3335C5.9995 8.77533 5.82376 9.19892 5.51134 9.51134C5.19892 9.82376 4.77533 9.9995 4.3335 10Z"
  />
</svg>
