<svg viewBox="0 0 40 24" fill="currentColor" xmlns="http://www.w3.org/2000/svg">
  <path
    d="M36.1889 0H2.81564C1.26155 0 0 1.26155 0 2.80955V21.1844C0 22.7384 1.26155 24 2.81564 24H36.195C37.7491 24 39.0107 22.7384 39.0046 21.1905V2.80955C39.0046 1.26155 37.743 0 36.1889 0ZM20.6298 18.3748H16.8817V11.0615L13.1336 15.7481L9.38548 11.0615V18.3748H5.62519V5.62519H9.37329L13.1214 10.3118L16.8695 5.62519H20.6176V18.3748H20.6298ZM28.8756 18.5637L23.2504 12H26.9985V5.62519H30.7466V12H34.4947L28.8756 18.5637Z"
  />
</svg>
