<svg viewBox="0 0 58 24" fill="currentColor" xmlns="http://www.w3.org/2000/svg">
  <path
    fill-rule="evenodd"
    clip-rule="evenodd"
    d="M2.61487 0.75H55.4527C56.4827 0.75 57.3176 1.58493 57.3176 2.61486V21.8851C57.3176 22.9151 56.4827 23.75 55.4527 23.75H2.61487C1.58493 23.75 0.75 22.9151 0.75 21.8851V2.61486C0.75 1.58493 1.58493 0.75 2.61487 0.75ZM52.0839 16.6504L46.9553 11.5236L52.1876 6.29126L50.4294 4.53305L45.1968 9.76566L39.9622 4.5329L38.2043 6.29141L43.4386 11.5239L38.3078 16.6547L40.066 18.4129L45.1971 13.2818L50.326 18.4089L52.0839 16.6504ZM24.9399 10.8529L28.4121 14.3251V4.89414H30.8986V14.3251L34.3708 10.8529L36.1291 12.6111L29.6554 19.0848L23.1817 12.6111L24.9399 10.8529ZM20.0202 18.5698V5.208L12.9752 12.253L6.03375 5.3116V18.6734H8.52023V11.3145L12.9752 15.7695L17.5337 11.2109V18.5698H20.0202Z"
  />
</svg>
