<svg viewBox="0 0 24 24" fill="currentColor" xmlns="http://www.w3.org/2000/svg">
  <path
    d="M11.8972 0.00675201C5.81981 0.00675201 6.19928 2.64229 6.19928 2.64229L6.20603 5.37278H12.0056V6.19254H3.90253C3.90253 6.19254 0.0135803 5.75149 0.0135803 11.8836C0.0135803 18.0158 3.40795 17.7984 3.40795 17.7984H5.43369V14.9528C5.43369 14.9528 5.32449 11.5584 8.77388 11.5584H14.526C14.526 11.5584 17.7578 11.6106 17.7578 8.43502V3.18439C17.7578 3.18439 18.2486 0.00675201 11.8972 0.00675201ZM8.69936 1.84295C8.8364 1.84283 8.97213 1.86973 9.09877 1.92212C9.22541 1.97451 9.34048 2.05136 9.43738 2.14827C9.53429 2.24517 9.61114 2.36024 9.66353 2.48688C9.71592 2.61352 9.74282 2.74925 9.7427 2.88629C9.74282 3.02334 9.71592 3.15907 9.66353 3.28571C9.61114 3.41235 9.53429 3.52741 9.43738 3.62432C9.34048 3.72123 9.22541 3.79808 9.09877 3.85046C8.97213 3.90285 8.8364 3.92976 8.69936 3.92963C8.56231 3.92976 8.42658 3.90285 8.29994 3.85046C8.1733 3.79808 8.05824 3.72123 7.96133 3.62432C7.86442 3.52741 7.78757 3.41235 7.73519 3.28571C7.6828 3.15907 7.65589 3.02334 7.65602 2.88629C7.65589 2.74925 7.6828 2.61352 7.73519 2.48688C7.78757 2.36024 7.86442 2.24517 7.96133 2.14827C8.05824 2.05136 8.1733 1.97451 8.29994 1.92212C8.42658 1.86973 8.56231 1.84283 8.69936 1.84295Z"
  />
  <path
    d="M12.0698 23.8221C18.1473 23.8221 17.7678 21.1865 17.7678 21.1865L17.761 18.4561H11.9614V17.6364H20.0645C20.0645 17.6364 23.9534 18.0774 23.9534 11.9452C23.9534 5.81299 20.559 6.03046 20.559 6.03046H18.5333V8.87598C18.5333 8.87598 18.6425 12.2703 15.1931 12.2703H9.44096C9.44096 12.2703 6.20923 12.2181 6.20923 15.3938V20.6445C6.20923 20.6445 5.7185 23.8221 12.0697 23.8221H12.0698ZM15.2677 21.9861C15.1307 21.9862 14.9949 21.9593 14.8683 21.9069C14.7417 21.8545 14.6266 21.7777 14.5297 21.6807C14.4328 21.5838 14.3559 21.4688 14.3036 21.3421C14.2512 21.2155 14.2243 21.0798 14.2244 20.9427C14.2242 20.8057 14.2511 20.6699 14.3035 20.5433C14.3559 20.4166 14.4328 20.3015 14.5297 20.2046C14.6266 20.1077 14.7416 20.0309 14.8683 19.9785C14.9949 19.9261 15.1307 19.8992 15.2677 19.8993C15.4048 19.8992 15.5405 19.9261 15.6671 19.9785C15.7938 20.0308 15.9088 20.1077 16.0057 20.2046C16.1027 20.3015 16.1795 20.4166 16.2319 20.5432C16.2843 20.6698 16.3112 20.8056 16.3111 20.9426C16.3112 21.0797 16.2843 21.2154 16.2319 21.342C16.1795 21.4687 16.1027 21.5837 16.0057 21.6806C15.9088 21.7776 15.7938 21.8544 15.6671 21.9068C15.5405 21.9592 15.4048 21.9862 15.2677 21.9861Z"
  />
</svg>
