<svg viewBox="0 0 24 24" fill="currentColor" xmlns="http://www.w3.org/2000/svg">
  <path
    d="M11.8848 1.15479C5.97908 1.15479 1.17212 5.96447 1.17212 11.8674C1.17212 17.7704 5.98044 22.5801 11.8848 22.5801C17.7891 22.5801 22.5974 17.7718 22.5974 11.8674C22.5974 5.96311 17.7878 1.15479 11.8848 1.15479ZM11.8685 2.10666C12.0516 2.11163 12.2256 2.18803 12.3533 2.31959C12.4811 2.45116 12.5525 2.62749 12.5525 2.81105C12.5525 2.99804 12.4782 3.17738 12.3459 3.3096C12.2137 3.44183 12.0344 3.51611 11.8474 3.51611C11.6604 3.51611 11.4811 3.44183 11.3488 3.3096C11.2166 3.17738 11.1423 2.99804 11.1423 2.81105C11.1423 2.7168 11.1612 2.62351 11.1978 2.53669C11.2345 2.44988 11.2882 2.3713 11.3558 2.30562C11.4234 2.23993 11.5035 2.18848 11.5913 2.15431C11.6791 2.12013 11.7743 2.10393 11.8685 2.10666ZM13.4826 3.26659C14.72 3.49826 15.8922 3.99655 16.9177 4.72685C17.9432 5.45716 18.7973 6.40196 19.4209 7.49563L18.5887 9.37218C18.5206 9.52832 18.5167 9.70498 18.5777 9.864C18.6388 10.023 18.76 10.1516 18.9151 10.2221L20.5156 10.9319C20.5651 11.4322 20.571 11.9359 20.5332 12.4372H19.6426C19.5542 12.4372 19.5175 12.4957 19.5175 12.5827V12.9907C19.5175 13.9521 18.9762 14.1628 18.5003 14.2145C18.0475 14.2662 17.5457 14.0241 17.4832 13.7481C17.2153 12.2455 16.772 11.9259 16.069 11.3711C16.942 10.8177 17.8476 10.0004 17.8476 8.90712C17.8476 7.7268 17.0385 6.98298 16.4878 6.61854C15.7127 6.10861 14.856 6.00662 14.6248 6.00662H5.42292C6.69479 4.58447 8.40012 3.6214 10.2748 3.26659L11.3599 4.40476C11.4179 4.46593 11.4875 4.51502 11.5646 4.54918C11.6417 4.58334 11.7248 4.6019 11.8091 4.6038C11.8935 4.60569 11.9773 4.59088 12.0559 4.56022C12.1344 4.52956 12.2062 4.48366 12.2669 4.42515L13.4826 3.26659ZM3.46478 8.48422C3.64803 8.48953 3.822 8.56607 3.94972 8.6976C4.07744 8.82913 4.14884 9.00527 4.14877 9.1886C4.14877 9.3756 4.07448 9.55494 3.94226 9.68716C3.81003 9.81939 3.63069 9.89367 3.4437 9.89367C3.2567 9.89367 3.07737 9.81939 2.94514 9.68716C2.81292 9.55494 2.73863 9.3756 2.73863 9.1886C2.73859 9.09436 2.75747 9.00107 2.79413 8.91425C2.8308 8.82743 2.88452 8.74886 2.9521 8.68317C3.01969 8.61749 3.09976 8.56604 3.18759 8.53187C3.27542 8.49769 3.37057 8.48149 3.46478 8.48422ZM20.2694 8.51549C20.4527 8.5208 20.6267 8.59735 20.7544 8.72888C20.8821 8.86041 20.9535 9.03655 20.9534 9.21988C20.9534 9.40688 20.8791 9.58621 20.7469 9.71844C20.6147 9.85066 20.4354 9.92495 20.2484 9.92495C20.0614 9.92495 19.882 9.85066 19.7498 9.71844C19.6176 9.58621 19.5433 9.40688 19.5433 9.21988C19.5433 9.12564 19.5621 9.03234 19.5988 8.94553C19.6355 8.85871 19.6892 8.78013 19.7568 8.71445C19.8243 8.64877 19.9044 8.59732 19.9923 8.56314C20.0801 8.52897 20.1752 8.51276 20.2694 8.51549ZM4.79196 8.62836H6.01988V14.1683H3.54229C3.23591 13.093 3.14033 11.9686 3.2608 10.8571L4.77972 10.1813C4.85679 10.1471 4.92636 10.0981 4.98447 10.037C5.04259 9.9759 5.08809 9.90397 5.1184 9.8253C5.14871 9.74663 5.16322 9.66275 5.1611 9.57847C5.15899 9.49419 5.14029 9.41116 5.10608 9.3341L4.79196 8.62836ZM9.91848 8.68683H12.8448C12.9971 8.68683 13.9123 8.86089 13.9123 9.5476C13.9123 10.116 13.2092 10.32 12.6313 10.32H9.91712L9.91848 8.68683ZM9.91848 12.667H12.1595C12.3634 12.667 13.2541 12.7255 13.537 13.8637C13.6254 14.2131 13.8225 15.35 13.9558 15.7157C14.0891 16.1237 14.6316 16.9396 15.2095 16.9396H18.8675C18.6223 17.2677 18.3542 17.5781 18.0652 17.8683L16.5762 17.5488C16.4936 17.531 16.4083 17.5297 16.3252 17.5448C16.2421 17.56 16.1628 17.5914 16.0918 17.6373C16.0208 17.6831 15.9596 17.7425 15.9116 17.812C15.8636 17.8815 15.8297 17.9598 15.8119 18.0424L15.4584 19.6919C14.3215 20.2068 13.087 20.4704 11.8389 20.4645C10.5909 20.4587 9.35882 20.1835 8.22687 19.6579L7.87331 18.0084C7.83774 17.8423 7.73775 17.697 7.59526 17.6045C7.45277 17.512 7.27941 17.4797 7.11317 17.5148L5.65545 17.8275C5.38519 17.5487 5.13397 17.2521 4.90347 16.9396H11.9909C12.0697 16.9396 12.1241 16.926 12.1241 16.8512V14.345C12.1241 14.273 12.0697 14.2567 11.9909 14.2567H9.91712L9.91848 12.667ZM6.64948 18.4082C6.83273 18.4135 7.0067 18.49 7.13442 18.6216C7.26214 18.7531 7.33354 18.9292 7.33347 19.1126C7.33347 19.2996 7.25918 19.4789 7.12696 19.6111C6.99473 19.7434 6.81539 19.8176 6.6284 19.8176C6.4414 19.8176 6.26207 19.7434 6.12984 19.6111C5.99762 19.4789 5.92333 19.2996 5.92333 19.1126C5.92329 19.0183 5.94216 18.925 5.97883 18.8382C6.0155 18.7514 6.06922 18.6728 6.1368 18.6071C6.20438 18.5415 6.28446 18.49 6.37229 18.4558C6.46012 18.4217 6.55527 18.4055 6.64948 18.4082ZM17.0861 18.4395C17.2694 18.4448 17.4433 18.5213 17.571 18.6528C17.6988 18.7844 17.7702 18.9605 17.7701 19.1438C17.7701 19.3308 17.6958 19.5102 17.5636 19.6424C17.4314 19.7746 17.252 19.8489 17.065 19.8489C16.878 19.8489 16.6987 19.7746 16.5665 19.6424C16.4342 19.5102 16.36 19.3308 16.36 19.1438C16.3599 19.0496 16.3788 18.9563 16.4155 18.8695C16.4521 18.7827 16.5058 18.7041 16.5734 18.6384C16.641 18.5727 16.7211 18.5213 16.8089 18.4871C16.8967 18.4529 16.9919 18.4367 17.0861 18.4395Z"
  />
  <path
    fill-rule="evenodd"
    clip-rule="evenodd"
    d="M21.999 11.8682C21.999 14.5507 20.9334 17.1233 19.0365 19.0201C17.1397 20.9169 14.5671 21.9825 11.8846 21.9825C9.20214 21.9825 6.62951 20.9169 4.73271 19.0201C2.8359 17.1233 1.77028 14.5507 1.77028 11.8682C1.77028 9.18567 2.8359 6.61305 4.73271 4.71624C6.62951 2.81944 9.20214 1.75382 11.8846 1.75382C14.5671 1.75382 17.1397 2.81944 19.0365 4.71624C20.9334 6.61305 21.999 9.18567 21.999 11.8682ZM21.8086 10.8918L23.386 11.8682L21.8086 12.8445L23.1643 14.1119L21.4278 14.7619L22.5116 16.2685L20.6786 16.5677L21.4496 18.258L19.5934 18.1927L20.0191 20.0012L18.2105 19.5756L18.2758 21.4318L16.5855 20.6608L16.2864 22.4938L14.7797 21.41L14.1297 23.1465L12.8623 21.7908L11.886 23.3682L10.9096 21.7908L9.64228 23.1465L8.99229 21.41L7.48561 22.4938L7.18645 20.6608L5.49619 21.4318L5.56146 19.5756L3.7529 20.0012L4.17853 18.1927L2.32237 18.258L3.09339 16.5677L1.26035 16.2685L2.34413 14.7619L0.607637 14.1119L1.96338 12.8445L0.385986 11.8682L1.96338 10.8918L0.607637 9.62446L2.34413 8.97447L1.26035 7.46779L3.09339 7.16863L2.32237 5.47837L4.17853 5.54364L3.7529 3.73508L5.56146 4.1607L5.49619 2.30455L7.18645 3.07557L7.48561 1.24253L8.99229 2.32631L9.64228 0.589815L10.9096 1.94556L11.886 0.368164L12.8623 1.94556L14.1297 0.589815L14.7797 2.32631L16.2864 1.24253L16.5855 3.07557L18.2758 2.30455L18.2105 4.1607L20.0191 3.73508L19.5934 5.54364L21.4496 5.47837L20.6786 7.16863L22.5116 7.46779L21.4278 8.97447L23.1643 9.62446L21.8086 10.8918Z"
    stroke="currentColor"
    stroke-width="0.5"
    stroke-linecap="round"
    stroke-linejoin="round"
  />
</svg>
