<svg viewBox="0 0 95 112" xmlns="http://www.w3.org/2000/svg">
  <path
    d="M88.1566 14.8189C77.7566 -0.0662003 57.2166 -4.4782 42.3652 4.9841L16.2825 21.6078C12.759 23.8245 9.73675 26.752 7.40898 30.2032C5.08122 33.6544 3.49915 37.5532 2.7639 41.6506C1.5197 48.5524 2.61328 55.6721 5.8715 61.8824C3.63888 65.2692 2.11613 69.0734 1.3953 73.0653C0.652253 77.2452 0.751337 81.5314 1.68674 85.6725C2.62214 89.8137 4.37503 93.7263 6.8426 97.181C17.2448 112.068 37.7849 116.478 52.634 107.016L78.7167 90.3921C82.2404 88.1756 85.2629 85.2482 87.5907 81.797C89.9184 78.3458 91.5004 74.4468 92.2353 70.3493C93.4793 63.4475 92.3866 56.328 89.13 50.117C91.362 46.7303 92.8841 42.9262 93.6043 38.9346C94.3478 34.7547 94.249 30.4684 93.3136 26.3272C92.3781 22.186 90.6246 18.2734 88.1566 14.8189Z"
    fill="#ff3e00"
  />
  <path
    d="M39.8171 98.5815C35.7125 99.6488 31.3792 99.4307 27.4025 97.9566C23.4258 96.4826 19.9973 93.8236 17.58 90.3389C16.0958 88.2615 15.0414 85.9085 14.4788 83.4182C13.9161 80.9278 13.8565 78.3501 14.3034 75.8364C14.4547 75.0111 14.663 74.1972 14.9267 73.4007L15.4179 71.9029L16.7542 72.8844C19.8403 75.152 23.2909 76.876 26.9572 77.9822L27.9266 78.2763L27.8373 79.2438C27.7188 80.6202 28.0915 81.9941 28.8893 83.1219C29.6168 84.1716 30.6489 84.9727 31.8462 85.4171C33.0435 85.8615 34.3483 85.9277 35.5845 85.6069C36.1514 85.4554 36.6917 85.2179 37.1866 84.9028L63.27 68.281C63.9082 67.8791 64.4557 67.3487 64.8777 66.7235C65.2996 66.0984 65.5867 65.3922 65.7206 64.65C65.8544 63.8923 65.836 63.1156 65.6665 62.3651C65.497 61.6146 65.1797 60.9054 64.7331 60.2788C64.0052 59.2289 62.9727 58.4275 61.775 57.9829C60.5773 57.5383 59.272 57.4718 58.0353 57.7924C57.4692 57.9439 56.9296 58.1812 56.4353 58.496L46.4821 64.8409C44.8454 65.8815 43.0593 66.6659 41.1856 67.1668C37.081 68.234 32.7478 68.0158 28.7712 66.5418C24.7945 65.0677 21.3661 62.4088 18.9488 58.9241C17.4645 56.8467 16.4101 54.4938 15.8475 52.0034C15.2848 49.5131 15.2252 46.9354 15.6722 44.4217C16.1142 41.9578 17.0657 39.6133 18.4656 37.5382C19.8655 35.4631 21.6831 33.7029 23.8022 32.3704L49.8833 15.7472C51.5207 14.7049 53.3081 13.9195 55.1833 13.4185C59.2878 12.3513 63.621 12.5695 67.5976 14.0435C71.5743 15.5175 75.0027 18.1764 77.42 21.6611C78.9042 23.7385 79.9586 26.0914 80.5212 28.5818C81.0839 31.0722 81.1435 33.6499 80.6966 36.1636C80.5446 36.9888 80.3364 37.8026 80.0733 38.5993L79.5821 40.0971L78.2465 39.1171C75.1606 36.8482 71.7097 35.1234 68.0428 34.0171L67.0734 33.7229L67.1627 32.7554C67.2801 31.3791 66.9075 30.0056 66.1107 28.8774C65.3832 27.8277 64.3511 27.0266 63.1538 26.5822C61.9565 26.1378 60.6517 26.0715 59.4155 26.3924C58.8486 26.5439 58.3083 26.7814 57.8134 27.0965L31.73 43.719C31.0919 44.1205 30.5445 44.6508 30.1229 45.2758C29.7013 45.9008 29.4146 46.6069 29.2813 47.349C29.1466 48.1066 29.1644 48.8835 29.3337 49.6341C29.5029 50.3848 29.8202 51.0941 30.2669 51.7207C30.9948 52.7706 32.0273 53.5719 33.225 54.0165C34.4227 54.4612 35.728 54.5277 36.9647 54.2071C37.5314 54.0553 38.0716 53.8178 38.5667 53.503L48.5186 47.1605C50.1546 46.1185 51.9406 45.3334 53.8145 44.8327C57.9191 43.7655 62.2523 43.9836 66.2289 45.4577C70.2056 46.9317 73.634 49.5907 76.0513 53.0754C77.5356 55.1528 78.59 57.5057 79.1526 59.996C79.7153 62.4864 79.7749 65.0641 79.3279 67.5778C78.8856 70.0418 77.934 72.3864 76.5341 74.4619C75.1343 76.5373 73.3168 78.2978 71.1979 79.631L45.1167 96.2528C43.4793 97.2951 41.6923 98.0805 39.8171 98.5815Z"
    fill="#fff"
  />
</svg>
