<svg xmlns="http://www.w3.org/2000/svg" fill="none" viewBox="0 0 921 169"><path fill="#D32F2F" d="M9.1 9c-.2-2.3-2-3.7-4.4-3.7-3 0-4.7 1.9-4.7 5v1.5c0 3.2 1.7 5 4.7 5 2.5 0 4.2-1.4 4.4-3.6H7.4c-.2 1.2-1.3 2-2.7 2-1.9 0-3-1.3-3-3.6v-1c0-2.4 1.1-3.7 3-3.7 1.4 0 2.5.8 2.7 2h1.7Zm13.1 7.6v-1.4h-3.6v-14h-5.5v1.4H17v12.6h-4v1.4h9.1Zm7 .2c1.6 0 2.8-.7 3.3-1.8h.2v1.6h1.6V9c0-2.3-1.4-3.6-4-3.6-2.3 0-4 1.2-4.2 3h1.7c.3-1 1.2-1.5 2.4-1.5 1.6 0 2.4.8 2.4 2.2v1l-3 .1c-2.5.1-4 1.3-4 3.3 0 2 1.5 3.3 3.6 3.3Zm.5-1.5c-1.4 0-2.3-.7-2.3-1.9 0-1.1.8-1.8 2.4-1.9l2.8-.1v1.3c0 1.5-1.3 2.6-3 2.6Zm9.5-6.8c0 1.6 1 2.6 3 3l1.6.4c1.4.4 2 .8 2 1.7 0 1-1 1.8-2.5 1.8s-2.4-.6-2.7-1.7h-1.8c.2 2 1.9 3.1 4.4 3.1 2.6 0 4.3-1.3 4.3-3.4 0-1.6-1-2.5-3.1-3l-1.6-.3c-1.4-.3-2-.8-2-1.7 0-1 1-1.6 2.4-1.6 1.3 0 2.2.6 2.4 1.5h1.7c-.2-1.8-1.8-3-4-3-2.5 0-4.1 1.3-4.1 3.2Zm12.8 0c0 1.6 1 2.6 3 3l1.6.4c1.5.4 2 .8 2 1.7 0 1-1 1.8-2.5 1.8-1.4 0-2.4-.6-2.6-1.7h-1.8c.2 2 1.9 3.1 4.4 3.1 2.6 0 4.3-1.3 4.3-3.4 0-1.6-1-2.5-3.1-3l-1.6-.3c-1.4-.3-2-.8-2-1.7 0-1 1-1.6 2.4-1.6 1.3 0 2.2.6 2.4 1.5H60c-.2-1.8-1.7-3-4-3-2.4 0-4 1.3-4 3.2Z"/><path fill="#6F42C1" d="M82.7 16.6v-13h4.4V1.9H76.5v1.7h4.4v13h1.8ZM94.9 2.8c.8 0 1.4-.6 1.4-1.4C96.3.6 95.7 0 95 0c-.8 0-1.5.6-1.5 1.4 0 .8.7 1.4 1.5 1.4Zm4.6 13.8v-1.4h-3.6V5.6h-5.5V7H94v8.2h-3.7v1.4h9.1Zm13.4-8.1c0-2-.8-3.2-2.4-3.2-1 0-2 .7-2.2 1.8h-.2c-.3-1.1-1-1.8-2-1.8s-1.9.7-2.1 1.8h-.2V5.6h-1.6v11h1.6V9.1c0-1.3.6-2.2 1.6-2.2s1.4.7 1.4 2v7.7h1.6V9.1c0-1.3.5-2.2 1.5-2.2s1.4.7 1.4 2v7.7h1.6V8.5Zm10.5 5.3c-.3 1-1.3 1.5-2.7 1.5-1.9 0-3-1.3-3-3.3v-.5h7.4v-1c0-3.2-1.7-5.2-4.5-5.2s-4.7 2-4.7 4.9v1.6c0 3.2 1.8 5 4.8 5 2.3 0 4-1.2 4.4-3h-1.7Zm-2.8-7c1.7 0 2.8 1.3 2.8 3.4h-5.8c0-2.1 1.1-3.4 3-3.4Zm12.3 4.9c0-2.9 1.4-4.5 3.9-4.5.6 0 1.3 0 1.8.3v-2l-1.6-.2c-2.1 0-3.5 1-4 3h-.1V5.7h-4.2V7h2.5v8.3H129v1.4h7.3v-1.4h-3.4v-3.5Z"/><path fill="#D32F2F" d="M162 13.8c-.3 1-1.3 1.5-2.7 1.5-1.9 0-3-1.3-3-3.3v-.5h7.5v-1c0-3.2-1.7-5.2-4.6-5.2-2.8 0-4.7 2-4.7 4.9v1.6c0 3.2 1.8 5 4.8 5 2.3 0 4-1.2 4.4-3H162Zm-2.8-7c1.8 0 2.8 1.3 2.8 3.4h-5.8c0-2.1 1.1-3.4 3-3.4Zm12.8 5.5 2.8 4.3h2L173 11l3.7-5.4h-2l-2.6 4.1h-.2l-2.7-4.1h-2l3.7 5.5-3.7 5.5h1.9l2.8-4.3Zm11-9.7v3h-3V7h3v6.2c0 2.3 1.2 3.4 4 3.4l2-.1V15h-2c-1.5 0-2.3-.6-2.3-1.8V7h4.4V5.6h-4.5v-3H183Zm17.7 11.2c-.3 1-1.4 1.5-2.8 1.5-1.8 0-3-1.3-3-3.3v-.5h7.5v-1c0-3.2-1.7-5.2-4.6-5.2-2.8 0-4.6 2-4.6 4.9v1.6c0 3.2 1.7 5 4.8 5 2.3 0 4-1.2 4.4-3h-1.7Zm-2.9-7c1.8 0 2.9 1.3 2.9 3.4h-5.8c0-2.1 1-3.4 3-3.4Zm8.2 9.8h1.8v-6.5c0-1.9 1.2-3.2 3-3.2 1.7 0 2.6 1 2.6 3v6.7h1.7V9.4c0-2.6-1.3-4-3.7-4-1.7 0-3 .7-3.5 2.1h-.2v-2h-1.6v11.1Zm16.8.2c1.5 0 2.7-.7 3.3-1.9h.2v1.7h1.7V1.2h-1.8v6h-.2c-.5-1.1-1.6-1.8-3.2-1.8-2.6 0-4.3 1.8-4.3 4.6v2.1c0 2.8 1.7 4.7 4.3 4.7Zm.5-1.6c-1.9 0-3-1.3-3-3.3v-1.6c0-2 1.1-3.4 3-3.4 1.8 0 3 1.3 3 3.4v1.6c0 2-1.2 3.3-3 3.3Zm9-6.7c0 1.6 1 2.6 3 3l1.6.4c1.4.4 2 .8 2 1.7 0 1-1 1.8-2.5 1.8-1.4 0-2.4-.6-2.7-1.7H232c.2 2 1.8 3.1 4.3 3.1 2.7 0 4.4-1.3 4.4-3.4 0-1.6-1-2.5-3.2-3l-1.5-.3c-1.4-.3-2-.8-2-1.7 0-1 1-1.6 2.3-1.6 1.3 0 2.3.6 2.5 1.5h1.6c-.2-1.8-1.7-3-4-3-2.5 0-4 1.3-4 3.2Z"/><path fill="#6F42C1" d="m262.6 10.7 2.8 5.9h2l-3-6.2a4.1 4.1 0 0 0 2.8-4c0-2.8-1.9-4.5-4.8-4.5h-4.9v14.7h1.8v-5.9h3.3Zm-3.3-7.2h3c2 0 3 1 3 2.9 0 1.8-1.1 2.8-3.1 2.8h-3V3.5ZM278 13.8c-.4 1-1.4 1.5-2.8 1.5-1.9 0-3-1.3-3-3.3v-.5h7.5v-1c0-3.2-1.7-5.2-4.6-5.2-2.8 0-4.7 2-4.7 4.9v1.6c0 3.2 1.8 5 4.8 5 2.3 0 4-1.2 4.4-3H278Zm-3-7c1.9 0 3 1.3 3 3.4h-6c0-2.1 1.1-3.4 3-3.4Zm11.7 10c1.6 0 2.8-.7 3.4-1.8h.1v1.6h1.7V9c0-2.3-1.5-3.6-4.1-3.6-2.3 0-4 1.2-4.2 3h1.7c.3-1 1.2-1.5 2.5-1.5 1.5 0 2.4.8 2.4 2.2v1l-3 .1c-2.6.1-4 1.3-4 3.3 0 2 1.4 3.3 3.5 3.3Zm.5-1.5c-1.4 0-2.2-.7-2.2-1.9 0-1.1.8-1.8 2.3-1.9l2.9-.1v1.3c0 1.5-1.3 2.6-3 2.6ZM305.3 9c-.3-2.3-2-3.7-4.4-3.7-3 0-4.7 1.9-4.7 5v1.5c0 3.2 1.7 5 4.7 5 2.5 0 4.1-1.4 4.4-3.6h-1.7c-.2 1.2-1.3 2-2.7 2-2 0-3-1.3-3-3.6v-1c0-2.4 1-3.7 3-3.7 1.4 0 2.5.8 2.7 2h1.7Zm6.4-6.4v3h-3V7h3v6.2c0 2.3 1.3 3.4 4 3.4l2.2-.1V15h-2c-1.6 0-2.5-.6-2.5-1.8V7h4.5V5.6h-4.5v-3h-1.7Z"/><path fill="#414141" d="M326.5 16.7c1 0 1.8-.9 1.8-2 0-1-.8-1.8-1.8-1.8s-1.9.9-1.9 1.9a2 2 0 0 0 1.9 1.9Z"/><path fill="#6F42C1" d="M339.7 15.2c-2.4 0-3.6-1.6-3.6-4.6V7.9c0-3 1.2-4.6 3.6-4.6 1.9 0 3.2 1.3 3.2 3.3h1.8c0-3.1-2-5-5-5-3.5 0-5.5 2.3-5.5 6.3v2.7c0 4 2 6.3 5.5 6.3 3 0 5-2 5-4.8H343c0 2-1.3 3.1-3.2 3.1Zm12.5 1.6c3 0 4.8-1.9 4.8-4.9v-1.7c0-3-1.9-4.8-4.8-4.8s-4.8 1.9-4.8 4.8V12c0 3 1.9 5 4.8 5Zm0-10c2 0 3 1.4 3 3.6v1.4c0 2.1-1 3.5-3 3.5-1.9 0-3-1.4-3-3.5v-1.4c0-2.2 1.1-3.5 3-3.5Zm18.2 1.7c0-2-.8-3.2-2.3-3.2-1.1 0-2 .7-2.3 1.8h-.2c-.2-1.1-1-1.8-2-1.8s-1.8.7-2 1.8h-.3V5.6h-1.5v11h1.5V9.1c0-1.3.6-2.2 1.6-2.2s1.4.7 1.4 2v7.7h1.6V9.1c0-1.3.6-2.2 1.5-2.2 1 0 1.5.7 1.5 2v7.7h1.5V8.5Zm8.3-3.1c-1.6 0-2.8.6-3.3 1.8h-.2V5.6h-1.7v14.7h1.7V15h.2c.5 1.2 1.7 1.9 3.3 1.9 2.5 0 4.2-1.9 4.2-4.7v-2c0-2.9-1.7-4.7-4.2-4.7Zm-.5 1.6c1.8 0 3 1.3 3 3.3v1.6c0 2-1.2 3.3-3 3.3-1.9 0-3-1.3-3-3.3v-1.6c0-2 1.1-3.3 3-3.3Zm12.7 9.8c2.9 0 4.7-1.9 4.7-4.9v-1.7c0-3-1.8-4.8-4.8-4.8-2.9 0-4.7 1.9-4.7 4.8V12c0 3 1.8 5 4.8 5Zm0-10c1.8 0 3 1.4 3 3.6v1.4c0 2.1-1.2 3.5-3 3.5-2 0-3.1-1.4-3.1-3.5v-1.4c0-2.2 1.2-3.5 3-3.5Zm8.3 9.8h1.7v-6.5c0-1.9 1.3-3.2 3-3.2 1.8 0 2.6 1 2.6 3v6.7h1.7V9.4c0-2.6-1.3-4-3.7-4-1.6 0-2.9.7-3.5 2.1h-.1v-2h-1.7v11.1Zm20.4-2.8c-.3 1-1.4 1.5-2.7 1.5-2 0-3.1-1.3-3.1-3.3v-.5h7.5v-1c0-3.2-1.7-5.2-4.6-5.2-2.8 0-4.6 2-4.6 4.9v1.6c0 3.2 1.7 5 4.8 5 2.3 0 4-1.2 4.4-3h-1.7Zm-2.9-7c1.8 0 2.9 1.3 2.9 3.4h-5.8c0-2.1 1-3.4 3-3.4Zm8.3 9.8h1.7v-6.5c0-1.9 1.2-3.2 3-3.2s2.6 1 2.6 3v6.7h1.7V9.4c0-2.6-1.3-4-3.7-4-1.7 0-3 .7-3.5 2.1h-.2v-2H425v11.1Zm15.5-14v3h-3V7h3v6.2c0 2.3 1.2 3.4 4 3.4l2.1-.1V15h-2c-1.6 0-2.4-.6-2.4-1.8V7h4.5V5.6h-4.5v-3h-1.7Z"/><path fill="#414141" d="M459.2 18v-1.4h-1.1c-1.5 0-1.8-.4-1.8-2.1v-2.7c0-1.5-1.1-2.4-3.2-2.5v-.1c2.1 0 3.2-1 3.2-2.4V4c0-1.7.3-2.1 1.8-2.1h1.1V.5h-1.4c-2.5 0-3.2.8-3.2 3.3v2.3c0 1.6-1 2.5-3.3 2.2v1.9c2.3-.3 3.3.6 3.3 2.2v2.3c0 2.5.7 3.3 3.2 3.3h1.4Z"/><path fill="#D32F2F" d="M472.7 9c-.3-2.3-2-3.7-4.4-3.7-3 0-4.7 1.9-4.7 5v1.5c0 3.2 1.7 5 4.7 5 2.5 0 4.1-1.4 4.4-3.6H471c-.2 1.2-1.3 2-2.7 2-2 0-3-1.3-3-3.6v-1c0-2.4 1-3.7 3-3.7 1.4 0 2.5.8 2.7 2h1.7Zm8.3 7.8c3 0 4.8-1.9 4.8-4.9v-1.7c0-3-1.9-4.8-4.8-4.8-3 0-4.8 1.9-4.8 4.8V12c0 3 1.9 5 4.8 5Zm0-10c1.9 0 3 1.4 3 3.6v1.4c0 2.1-1.1 3.5-3 3.5s-3-1.4-3-3.5v-1.4c0-2.2 1.1-3.5 3-3.5Zm8.3 9.8h1.8v-6.5c0-1.9 1.2-3.2 3-3.2 1.7 0 2.5 1 2.5 3v6.7h1.8V9.4c0-2.6-1.3-4-3.7-4-1.7 0-3 .7-3.6 2.1h-.1v-2h-1.7v11.1Zm13.4-8.1c0 1.6 1 2.6 3 3l1.6.4c1.4.4 2 .8 2 1.7 0 1-1 1.8-2.5 1.8-1.4 0-2.4-.6-2.6-1.7h-1.8c.2 2 1.9 3.1 4.4 3.1 2.6 0 4.3-1.3 4.3-3.4 0-1.6-1-2.5-3.2-3l-1.5-.3c-1.4-.3-2-.8-2-1.7 0-1 1-1.6 2.3-1.6 1.3 0 2.3.6 2.5 1.5h1.6c-.2-1.8-1.7-3-4-3-2.5 0-4 1.3-4 3.2Zm15-5.9v3h-3V7h3v6.2c0 2.3 1.3 3.4 4 3.4l2.2-.1V15h-2c-1.6 0-2.4-.6-2.4-1.8V7h4.4V5.6h-4.5v-3h-1.7Zm14.3 9.1c0-2.9 1.5-4.5 4-4.5.5 0 1.3 0 1.8.3v-2l-1.6-.2c-2.2 0-3.5 1-4 3h-.2V5.7h-4V7h2.4v8.3H528v1.4h7.4v-1.4H532v-3.5Zm17.9-6.1h-1.7V12a3 3 0 0 1-3 3.1c-1.8 0-2.6-1-2.6-3V5.7h-1.8v7.1c0 2.7 1.4 4.1 3.8 4.1 1.6 0 2.9-.8 3.5-2.1h.1v1.9h1.7v-11ZM562.8 9c-.2-2.3-2-3.7-4.4-3.7-3 0-4.7 1.9-4.7 5v1.5c0 3.2 1.7 5 4.7 5 2.5 0 4.2-1.4 4.4-3.6h-1.7c-.2 1.2-1.3 2-2.7 2-2 0-3-1.3-3-3.6v-1c0-2.4 1-3.7 3-3.7 1.4 0 2.5.8 2.7 2h1.7Zm6.4-6.4v3h-2.9V7h3v6.2c0 2.3 1.2 3.4 4 3.4l2-.1V15h-2c-1.5 0-2.3-.6-2.3-1.8V7h4.4V5.6H571v-3h-1.7ZM584 16.8c3 0 4.8-1.9 4.8-4.9v-1.7c0-3-1.9-4.8-4.8-4.8-3 0-4.8 1.9-4.8 4.8V12c0 3 1.9 5 4.8 5Zm0-10c1.9 0 3 1.4 3 3.6v1.4c0 2.1-1.1 3.5-3 3.5s-3-1.4-3-3.5v-1.4c0-2.2 1.1-3.5 3-3.5Zm12.4 4.9c0-2.9 1.5-4.5 4-4.5.5 0 1.2 0 1.7.3v-2l-1.6-.2c-2 0-3.5 1-3.9 3h-.2V5.7h-4.1V7h2.4v8.3h-2.2v1.4h7.3v-1.4h-3.4v-3.5Z"/><path fill="#414141" d="M607.5 9.2c0 3.5 1 6.5 3.1 8.8h1.7a14.2 14.2 0 0 1 0-17.5h-1.7a13 13 0 0 0-3 8.7Zm15.8-3.8c-1.6 0-2.7.6-3.3 1.8h-.2V5.6h-1.7v14.7h1.8V15h.2c.5 1.2 1.6 1.9 3.2 1.9 2.6 0 4.2-1.9 4.2-4.7v-2c0-2.9-1.6-4.7-4.2-4.7Zm-.5 1.6c1.8 0 3 1.3 3 3.3v1.6c0 2-1.2 3.3-3 3.3s-3-1.3-3-3.3v-1.6c0-2 1.2-3.3 3-3.3Zm12.2 4.7c0-2.9 1.5-4.5 4-4.5.6 0 1.3 0 1.8.3v-2l-1.6-.2c-2.1 0-3.5 1-4 3h-.2V5.7h-4V7h2.4v8.3h-2.2v1.4h7.3v-1.4H635v-3.5Zm13.4 5.1c2.9 0 4.8-1.9 4.8-4.9v-1.7c0-3-1.9-4.8-4.8-4.8-3 0-4.8 1.9-4.8 4.8V12c0 3 1.9 5 4.8 5Zm0-10c1.9 0 3 1.4 3 3.6v1.4c0 2.1-1.1 3.5-3 3.5-2 0-3-1.4-3-3.5v-1.4c0-2.2 1-3.5 3-3.5ZM662 5.4c-1.6 0-2.8.6-3.4 1.8h-.1V5.6h-1.7v14.7h1.7V15h.2c.5 1.2 1.7 1.9 3.2 1.9 2.6 0 4.3-1.9 4.3-4.7v-2c0-2.9-1.7-4.7-4.3-4.7Zm-.5 1.6c1.8 0 3 1.3 3 3.3v1.6c0 2-1.2 3.3-3 3.3-1.9 0-3-1.3-3-3.3v-1.6c0-2 1.1-3.3 3-3.3Zm8.6 1.5c0 1.6 1 2.6 3 3l1.6.4c1.4.4 2 .8 2 1.7 0 1-1 1.8-2.5 1.8-1.4 0-2.4-.6-2.6-1.7h-1.8c.2 2 1.9 3.1 4.4 3.1 2.6 0 4.3-1.3 4.3-3.4 0-1.6-1-2.5-3.2-3l-1.5-.3c-1.4-.3-2-.8-2-1.7 0-1 1-1.6 2.3-1.6 1.3 0 2.3.6 2.5 1.5h1.6c-.2-1.8-1.7-3-4-3-2.5 0-4 1.3-4 3.2Zm19.1.7c0-3.4-1-6.4-3-8.7h-1.8a14.2 14.2 0 0 1 0 17.5h1.8c2-2.3 3-5.3 3-8.8Zm14.7 8.8v-1.4h-1.2c-1.5 0-1.8-.4-1.8-2.1v-2.7c0-1.5-1-2.4-3.1-2.5v-.1c2 0 3.1-1 3.1-2.4V4c0-1.7.3-2.1 1.8-2.1h1.2V.5h-1.4c-2.5 0-3.3.8-3.3 3.3v2.3c0 1.6-.9 2.5-3.3 2.2v1.9c2.4-.3 3.3.6 3.3 2.2v2.3c0 2.5.8 3.3 3.3 3.3h1.4Z"/><path fill="#6F42C1" d="M.5 38.3c0 1.6 1 2.6 3 3l1.6.4c1.4.4 2 .8 2 1.7 0 1-1 1.8-2.5 1.8-1.4 0-2.4-.6-2.6-1.7H.2c.2 2 1.9 3.1 4.4 3.1 2.6 0 4.3-1.3 4.3-3.4 0-1.6-1-2.5-3.1-3L4.2 40c-1.4-.3-2-.8-2-1.7 0-1 1-1.6 2.4-1.6 1.2 0 2.2.6 2.4 1.5h1.6c-.2-1.8-1.7-3-4-3-2.4 0-4 1.3-4 3.2ZM22 35.4h-1.8v6.5c0 1.8-1.2 3.1-3 3.1s-2.6-1-2.6-3v-6.6H13v7.1c0 2.7 1.3 4.1 3.7 4.1 1.7 0 3-.8 3.5-2.1h.2v1.9H22v-11Zm9-.2c-1.6 0-2.7.6-3.3 1.8h-.2v-1.6h-1.7V50h1.8v-5.4h.1c.5 1.2 1.7 1.9 3.3 1.9 2.5 0 4.2-1.9 4.2-4.7v-2c0-2.9-1.7-4.7-4.2-4.7Zm-.5 1.6c1.8 0 3 1.3 3 3.3v1.6c0 2-1.2 3.3-3 3.3s-3-1.3-3-3.3V40c0-2 1.2-3.3 3-3.3Zm15.7 6.8c-.4 1-1.4 1.5-2.8 1.5-1.9 0-3-1.3-3-3.3v-.5h7.5v-1c0-3.2-1.7-5.2-4.6-5.2-2.8 0-4.7 2-4.7 4.9v1.6c0 3.2 1.8 5 4.8 5 2.3 0 4.1-1.2 4.4-3h-1.6Zm-2.9-7c1.8 0 2.9 1.3 2.9 3.4h-5.9c0-2.1 1.2-3.4 3-3.4Zm12.3 4.9c0-2.9 1.5-4.5 3.9-4.5.6 0 1.3 0 1.8.3v-2l-1.6-.2c-2.1 0-3.5 1-3.9 3h-.2v-2.7h-4.1v1.3h2.4V45h-2.2v1.4H59V45h-3.4v-3.5Z"/><path fill="#414141" d="M66.7 39c0 3.5 1 6.5 3 8.8h1.8a14.2 14.2 0 0 1 0-17.5h-1.7a13 13 0 0 0-3 8.7Zm15.8-3.8c-1.6 0-2.7.6-3.3 1.8H79v-1.6h-1.7V50h1.8v-5.4h.2c.4 1.2 1.6 1.9 3.2 1.9 2.5 0 4.2-1.9 4.2-4.7v-2c0-2.9-1.7-4.7-4.2-4.7Zm-.5 1.6c1.8 0 3 1.3 3 3.3v1.6c0 2-1.2 3.3-3 3.3s-3-1.3-3-3.3V40c0-2 1.2-3.3 3-3.3Zm12.2 4.7c0-2.9 1.5-4.5 4-4.5.5 0 1.2 0 1.7.3v-2l-1.5-.2c-2.2 0-3.5 1-4 3h-.2v-2.7h-4.1v1.3h2.5V45h-2.3v1.4h7.4V45h-3.5v-3.5Zm13.4 5.1c2.9 0 4.7-1.9 4.7-4.9V40c0-3-1.8-4.8-4.7-4.8-3 0-4.8 1.9-4.8 4.8v1.7c0 3 1.8 5 4.8 5Zm0-10c1.8 0 3 1.4 3 3.6v1.4c0 2.1-1.2 3.5-3 3.5-2 0-3.1-1.4-3.1-3.5v-1.4c0-2.2 1.2-3.5 3-3.5Zm13.5-1.4c-1.6 0-2.7.6-3.3 1.8h-.2v-1.6H116V50h1.8v-5.4h.2c.5 1.2 1.6 1.9 3.2 1.9 2.6 0 4.2-1.9 4.2-4.7v-2c0-2.9-1.6-4.7-4.2-4.7Zm-.5 1.6c1.8 0 3 1.3 3 3.3v1.6c0 2-1.2 3.3-3 3.3s-3-1.3-3-3.3V40c0-2 1.2-3.3 3-3.3Zm8.7 1.5c0 1.6 1 2.6 3 3l1.6.4c1.4.4 2 .8 2 1.7 0 1-1 1.8-2.5 1.8-1.4 0-2.4-.6-2.7-1.7H129c.2 2 1.8 3.1 4.3 3.1 2.6 0 4.3-1.3 4.3-3.4 0-1.6-1-2.5-3-3L133 40c-1.4-.3-2-.8-2-1.7 0-1 1-1.6 2.3-1.6 1.3 0 2.2.6 2.4 1.5h1.7c-.2-1.8-1.8-3-4-3-2.5 0-4.1 1.3-4.1 3.2Zm19.1.7c0-3.4-1-6.4-3-8.7h-1.8a14.2 14.2 0 0 1 0 17.5h1.7c2-2.3 3.1-5.3 3.1-8.8Zm10.6-.4c1 0 1.9-.8 1.9-1.8s-.8-2-1.8-2-1.9 1-1.9 2 .9 1.8 1.9 1.8Zm-.8 11.2 1.9-6.6h-2.3l-1.3 6.6h1.7Z"/><path fill="#1976D2" d="M170 32.4v3h-2.9v1.5h3V43c0 2.3 1.2 3.4 4 3.4l2.1-.1v-1.5h-2c-1.6 0-2.4-.6-2.4-1.8v-6.2h4.4v-1.5h-4.4v-3H170Zm10.3 14h1.7v-6.5c0-1.9 1.2-3.2 3-3.2s2.6 1 2.6 3v6.7h1.7v-7.2c0-2.6-1.3-4-3.7-4-1.7 0-3 .7-3.5 2.1h-.1V31h-1.7v15.4Zm17.6-13.8c.8 0 1.4-.6 1.4-1.4 0-.8-.6-1.4-1.4-1.4-.8 0-1.5.6-1.5 1.4 0 .8.7 1.4 1.5 1.4Zm4.6 13.8V45H199v-9.6h-5.5v1.4h3.7V45h-3.7v1.4h9.1Zm4-8.1c0 1.6 1 2.6 3 3l1.7.4c1.4.4 2 .8 2 1.7 0 1-1 1.8-2.6 1.8-1.4 0-2.4-.6-2.6-1.7h-1.8c.2 2 1.9 3.1 4.4 3.1 2.6 0 4.3-1.3 4.3-3.4 0-1.6-1-2.5-3.1-3l-1.6-.3c-1.4-.3-2-.8-2-1.7 0-1 1-1.6 2.4-1.6 1.3 0 2.2.6 2.4 1.5h1.7c-.2-1.8-1.8-3-4.1-3-2.4 0-4 1.3-4 3.2Z"/><path fill="#414141" d="M223.4 46.5c1 0 1.9-.9 1.9-2 0-1-.9-1.8-1.9-1.8-1 0-1.8.9-1.8 1.9 0 1 .8 1.9 1.8 1.9Zm8.9-8.2c0 1.6 1 2.6 3 3l1.6.4c1.4.4 2 .8 2 1.7 0 1-1 1.8-2.5 1.8-1.4 0-2.4-.6-2.7-1.7H232c.2 2 1.8 3.1 4.3 3.1 2.6 0 4.3-1.3 4.3-3.4 0-1.6-1-2.5-3-3L236 40c-1.4-.3-2-.8-2-1.7 0-1 1-1.6 2.3-1.6 1.3 0 2.2.6 2.4 1.5h1.7c-.2-1.8-1.7-3-4-3-2.5 0-4.1 1.3-4.1 3.2Zm15-5.9v3h-3v1.5h3V43c0 2.3 1.3 3.4 4 3.4l2.2-.1v-1.5h-2c-1.6 0-2.5-.6-2.5-1.8v-6.2h4.5v-1.5H249v-3h-1.7ZM261 46.6c1.6 0 2.8-.7 3.3-1.8h.2v1.6h1.6v-7.6c0-2.3-1.5-3.6-4-3.6-2.3 0-4 1.2-4.2 3h1.7c.2-1 1.1-1.5 2.4-1.5 1.5 0 2.4.8 2.4 2.2v1l-3 .1c-2.6.1-4 1.3-4 3.3 0 2 1.4 3.3 3.5 3.3Zm.4-1.5c-1.3 0-2.2-.7-2.2-1.9 0-1.1.8-1.8 2.3-1.9l2.9-.1v1.3c0 1.5-1.3 2.6-3 2.6ZM273 32.4v3h-2.9v1.5h3V43c0 2.3 1.2 3.4 4 3.4l2.1-.1v-1.5h-2c-1.6 0-2.4-.6-2.4-1.8v-6.2h4.4v-1.5h-4.4v-3H273Zm17.8 11.2c-.3 1-1.3 1.5-2.7 1.5-2 0-3.1-1.3-3.1-3.3v-.5h7.5v-1c0-3.2-1.7-5.2-4.6-5.2-2.8 0-4.6 2-4.6 4.9v1.6c0 3.2 1.7 5 4.8 5 2.3 0 4-1.2 4.4-3h-1.7Zm-2.9-7c1.8 0 2.9 1.3 2.9 3.4H285c0-2.1 1.1-3.4 3-3.4Z"/><path fill="#D32F2F" d="M306 38.4v-1.7h-10.7v1.7h10.8Zm0 4.7v-1.7h-10.7V43h10.8Z"/><path fill="#414141" d="M317.5 47.8v-1.4h-1c-1.6 0-1.9-.4-1.9-2.1v-2.7c0-1.5-1-2.4-3.1-2.5V39c2 0 3.1-1 3.1-2.4v-2.8c0-1.7.3-2 1.8-2h1.1v-1.5h-1.3c-2.5 0-3.3.8-3.3 3.3V36c0 1.6-1 2.5-3.3 2.2V40c2.4-.3 3.3.6 3.3 2.2v2.3c0 2.5.8 3.3 3.3 3.3h1.3Zm4.9-9.5c0 1.6 1 2.6 3 3l1.7.4c1.4.4 1.9.8 1.9 1.7 0 1-1 1.8-2.5 1.8-1.4 0-2.4-.6-2.6-1.7H322c.2 2 1.9 3.1 4.4 3.1 2.6 0 4.3-1.3 4.3-3.4 0-1.6-1-2.5-3.1-3L326 40c-1.4-.3-2-.8-2-1.7 0-1 1-1.6 2.4-1.6 1.3 0 2.2.6 2.4 1.5h1.7c-.3-1.8-1.8-3-4.1-3-2.4 0-4 1.3-4 3.2Zm19.9 5.3c-.3 1-1.3 1.5-2.7 1.5-1.9 0-3.1-1.3-3.1-3.3v-.5h7.5v-1c0-3.2-1.7-5.2-4.5-5.2s-4.7 2-4.7 4.9v1.6c0 3.2 1.8 5 4.8 5 2.3 0 4-1.2 4.4-3h-1.7Zm-2.8-7c1.7 0 2.8 1.3 2.8 3.4h-5.8c0-2.1 1.1-3.4 3-3.4Zm17.3 2.2c-.3-2.3-2-3.7-4.4-3.7-3 0-4.7 1.9-4.7 5v1.5c0 3.2 1.7 5 4.7 5 2.5 0 4.1-1.4 4.4-3.6h-1.7c-.2 1.2-1.3 2-2.7 2-2 0-3-1.3-3-3.6v-1c0-2.4 1-3.7 3-3.7 1.4 0 2.5.8 2.7 2.1h1.7Zm8.2 7.8c3 0 4.9-1.9 4.9-4.9V40c0-3-1.9-4.8-4.8-4.8-3 0-4.8 1.9-4.8 4.8v1.7c0 3 1.9 5 4.8 5Zm0-10c2 0 3.2 1.4 3.2 3.6v1.4c0 2.1-1.2 3.5-3.1 3.5-2 0-3-1.4-3-3.5v-1.4c0-2.2 1-3.5 3-3.5Zm8.4 9.8h1.8v-6.5c0-1.9 1.2-3.2 3-3.2 1.7 0 2.5 1 2.5 3v6.7h1.8v-7.2c0-2.6-1.3-4-3.7-4-1.7 0-3 .7-3.6 2.1h-.1v-2h-1.7v11.1Zm16.7.2c1.6 0 2.8-.7 3.3-1.9h.2v1.7h1.7V31h-1.7v6h-.2c-.5-1.1-1.7-1.8-3.3-1.8-2.5 0-4.2 1.8-4.2 4.6V42c0 2.8 1.7 4.7 4.2 4.7Zm.5-1.6c-1.8 0-3-1.3-3-3.3V40c0-2 1.2-3.4 3-3.4 1.9 0 3 1.3 3 3.4v1.6c0 2-1.1 3.3-3 3.3Zm9.1-6.7c0 1.6 1 2.6 3 3l1.6.4c1.4.4 2 .8 2 1.7 0 1-1 1.8-2.5 1.8-1.4 0-2.4-.6-2.7-1.7h-1.7c.2 2 1.8 3.1 4.3 3.1 2.6 0 4.3-1.3 4.3-3.4 0-1.6-1-2.5-3-3l-1.6-.3c-1.4-.3-2-.8-2-1.7 0-1 1-1.6 2.3-1.6 1.3 0 2.2.6 2.4 1.5h1.7c-.2-1.8-1.8-3-4-3-2.5 0-4.1 1.3-4.1 3.2Z"/><path fill="#D32F2F" d="M416.6 38.6c1 0 1.8-.8 1.8-1.8s-.8-2-1.8-2-1.9 1-1.9 2 .9 1.8 1.9 1.8Zm0 7.9c1 0 1.8-.9 1.8-2 0-1-.8-1.8-1.8-1.8s-1.9.9-1.9 1.9a2 2 0 0 0 1.9 1.9Z"/><path fill="#1976D2" d="M429.5 46.7c3.2 0 5-2.7 5-7.6 0-5-1.8-7.7-5-7.7s-5 2.7-5 7.7 1.8 7.6 5 7.6Zm-3.2-7.6c0-4 1.1-6.1 3.2-6.1 1.4 0 2.3 1 2.8 2.7l-6 5V39Zm3.2 6c-1.4 0-2.4-.9-2.8-2.7l5.9-5v1.7c0 4-1 6-3.1 6Z"/><path fill="#414141" d="M438.4 47.8h1.4c2.4 0 3.2-.8 3.2-3.3v-2.3c0-1.6 1-2.5 3.3-2.2v-2c-2.4.3-3.3-.6-3.3-2.2v-2.3c0-2.5-.8-3.3-3.2-3.3h-1.4v1.4h1c1.6 0 2 .4 2 2.1v2.8c0 1.4 1 2.3 3 2.4v.1c-2 0-3 1-3 2.5v2.7c0 1.7-.4 2.1-2 2.1h-1v1.4Zm16.8-9.2c1 0 1.9-.8 1.9-1.8s-.9-2-1.9-2c-1 0-1.8 1-1.8 2s.8 1.8 1.8 1.8Zm-.9 11.2 2-6.6H454l-1.3 6.6h1.6Zm9.8-2h1.4c2.5 0 3.3-.8 3.3-3.3v-2.3c0-1.6.9-2.5 3.3-2.2v-2c-2.4.3-3.3-.6-3.3-2.2v-2.3c0-2.5-.8-3.3-3.3-3.3h-1.4v1.4h1.1c1.6 0 1.9.4 1.9 2.1v2.8c0 1.4 1 2.3 3 2.4v.1c-2 0-3 1-3 2.5v2.7c0 1.7-.3 2.1-1.9 2.1h-1v1.4ZM479 32.4v3h-2.9v1.5h3V43c0 2.3 1.3 3.4 4 3.4l2.1-.1v-1.5h-2c-1.5 0-2.4-.6-2.4-1.8v-6.2h4.5v-1.5h-4.5v-3h-1.7Zm15 .2c.9 0 1.5-.6 1.5-1.4 0-.8-.6-1.4-1.5-1.4-.8 0-1.4.6-1.4 1.4 0 .8.6 1.4 1.4 1.4Zm4.7 13.8V45H495v-9.6h-5.4v1.4h3.7V45h-3.8v1.4h9.2Zm12.6-7.6c-.3-2.3-2-3.7-4.4-3.7-3 0-4.7 1.9-4.7 5v1.5c0 3.2 1.7 5 4.7 5 2.5 0 4.1-1.4 4.4-3.6h-1.7c-.2 1.2-1.3 2-2.7 2-2 0-3-1.3-3-3.6v-1c0-2.4 1-3.7 3-3.7 1.4 0 2.5.8 2.7 2.1h1.7Zm6.5 1.5h-.2V31H516v15.4h1.7v-4l1.5-1.5 3.8 5.5h2l-4.5-6.7 4.3-4.3h-2.1l-4.8 5Zm12.5-1.3c0 3.5 1 6.5 3 8.8h1.7a14.2 14.2 0 0 1 0-17.5h-1.7a13 13 0 0 0-3 8.7Zm17.3 0c0-3.4-1-6.4-3.1-8.7h-1.7a14.2 14.2 0 0 1 0 17.5h1.7c2-2.3 3-5.3 3-8.8Zm14.6 8.8v-1.4H561c-1.5 0-1.8-.4-1.8-2.1v-2.7c0-1.5-1.1-2.4-3.2-2.5V39c2 0 3.2-1 3.2-2.4v-2.8c0-1.7.3-2 1.8-2h1v-1.5h-1.3c-2.5 0-3.2.8-3.2 3.3V36c0 1.6-1 2.5-3.3 2.2V40c2.3-.3 3.3.6 3.3 2.2v2.3c0 2.5.7 3.3 3.2 3.3h1.4Zm7-15.4v3h-3v1.5h3V43c0 2.3 1.3 3.4 4 3.4l2.2-.1v-1.5h-2c-1.6 0-2.5-.6-2.5-1.8v-6.2h4.5v-1.5h-4.5v-3h-1.7Zm10.3 14h1.7v-6.5c0-1.9 1.2-3.2 3-3.2s2.6 1 2.6 3v6.7h1.7v-7.2c0-2.6-1.3-4-3.7-4-1.7 0-3 .7-3.5 2.1h-.2V31h-1.6v15.4ZM597 32.6c.9 0 1.5-.6 1.5-1.4 0-.8-.6-1.4-1.5-1.4-.8 0-1.4.6-1.4 1.4 0 .8.6 1.4 1.4 1.4Zm4.7 13.8V45H598v-9.6h-5.4v1.4h3.7V45h-3.8v1.4h9.2Zm4-8.1c0 1.6 1 2.6 3 3l1.6.4c1.4.4 2 .8 2 1.7 0 1-1 1.8-2.5 1.8-1.4 0-2.4-.6-2.6-1.7h-1.8c.2 2 1.8 3.1 4.3 3.1 2.7 0 4.4-1.3 4.4-3.4 0-1.6-1-2.5-3.2-3l-1.5-.3c-1.4-.3-2-.8-2-1.7 0-1 1-1.6 2.3-1.6 1.3 0 2.3.6 2.5 1.5h1.6c-.2-1.8-1.7-3-4-3-2.5 0-4 1.3-4 3.2Zm16.9 8.2c1 0 1.8-.9 1.8-2 0-1-.8-1.8-1.8-1.8s-1.8.9-1.8 1.9c0 1 .8 1.9 1.8 1.9Zm8.9-8.2c0 1.6 1 2.6 3 3l1.6.4c1.4.4 2 .8 2 1.7 0 1-1 1.8-2.5 1.8s-2.4-.6-2.7-1.7h-1.8c.2 2 1.9 3.1 4.4 3.1 2.6 0 4.3-1.3 4.3-3.4 0-1.6-1-2.5-3.1-3L635 40c-1.3-.3-2-.8-2-1.7 0-1 1-1.6 2.4-1.6 1.3 0 2.2.6 2.4 1.5h1.7c-.2-1.8-1.8-3-4-3-2.5 0-4.1 1.3-4.1 3.2Zm19.8 5.3c-.3 1-1.3 1.5-2.7 1.5-1.9 0-3-1.3-3-3.3v-.5h7.4v-1c0-3.2-1.6-5.2-4.5-5.2-2.8 0-4.7 2-4.7 4.9v1.6c0 3.2 1.8 5 4.8 5 2.3 0 4-1.2 4.4-3h-1.7Zm-2.8-7c1.8 0 2.8 1.3 2.8 3.4h-5.8c0-2.1 1.1-3.4 3-3.4Zm10.9-4.2v3h-3v1.5h3V43c0 2.3 1.2 3.4 4 3.4l2.1-.1v-1.5h-2c-1.6 0-2.4-.6-2.4-1.8v-6.2h4.4v-1.5h-4.4v-3h-1.8Zm9.6 10.1c.2 2.6 2.2 4.2 5.2 4.2 3.1 0 5.1-1.7 5.1-4.3 0-2.2-1.2-3.5-4-4.2L674 38c-2-.5-2.8-1.2-2.8-2.5 0-1.5 1.2-2.4 3-2.4s3 1 3 2.4h1.8c0-2.4-2-4-4.8-4-2.9 0-4.8 1.6-4.8 4.1 0 2.2 1.3 3.4 4 4.1l1.3.4c2 .4 2.8 1.2 2.8 2.5 0 1.6-1.3 2.6-3.2 2.6-2 0-3.3-1-3.5-2.6h-1.7Zm16.1-10.1v3h-3v1.5h3V43c0 2.3 1.3 3.4 4 3.4l2.2-.1v-1.5h-2c-1.6 0-2.5-.6-2.5-1.8v-6.2h4.5v-1.5h-4.5v-3h-1.7Zm13.6 14.2c1.6 0 2.8-.7 3.4-1.8h.1v1.6h1.7v-7.6c0-2.3-1.5-3.6-4-3.6-2.3 0-4 1.2-4.3 3h1.7c.3-1 1.2-1.5 2.5-1.5 1.5 0 2.4.8 2.4 2.2v1l-3 .1c-2.6.1-4 1.3-4 3.3 0 2 1.4 3.3 3.5 3.3Zm.5-1.5c-1.4 0-2.2-.7-2.2-1.9 0-1.1.8-1.8 2.3-1.9l2.9-.1v1.3c0 1.5-1.3 2.6-3 2.6Zm11.7-12.7v3h-3v1.5h3V43c0 2.3 1.2 3.4 4 3.4l2.1-.1v-1.5h-2c-1.6 0-2.4-.6-2.4-1.8v-6.2h4.4v-1.5h-4.4v-3h-1.7Zm17.7 11.2c-.3 1-1.3 1.5-2.7 1.5-2 0-3.1-1.3-3.1-3.3v-.5h7.5v-1c0-3.2-1.7-5.2-4.6-5.2-2.8 0-4.6 2-4.6 4.9v1.6c0 3.2 1.7 5 4.8 5 2.3 0 4-1.2 4.4-3h-1.7Zm-2.9-7c1.8 0 2.9 1.3 2.9 3.4h-5.8c0-2.1 1-3.4 3-3.4ZM2.3 68.9c0 3.4 1 6.4 3 8.7h1.8a14.2 14.2 0 0 1 0-17.5H5.4a13 13 0 0 0-3 8.8Zm11.1-.8c0 1.6 1 2.6 3 3l1.6.5c1.4.3 2 .7 2 1.6 0 1-1 1.8-2.5 1.8-1.4 0-2.4-.6-2.7-1.7h-1.7c.2 2 1.8 3.1 4.3 3.1 2.7 0 4.4-1.3 4.4-3.4 0-1.6-1-2.5-3.2-3l-1.5-.3c-1.4-.3-2-.8-2-1.7 0-1 1-1.6 2.3-1.6 1.3 0 2.2.6 2.5 1.5h1.6c-.2-1.8-1.7-3-4-3-2.5 0-4.1 1.3-4.1 3.2Zm15-5.9v3h-3v1.5h3v6.2c0 2.3 1.3 3.4 4 3.4l2.2-.1v-1.5h-2c-1.6 0-2.5-.6-2.5-1.8v-6.2h4.5v-1.5h-4.5v-3h-1.7ZM42 76.4c1.7 0 2.9-.7 3.4-1.8h.2v1.6h1.6v-7.6c0-2.3-1.5-3.6-4-3.6-2.3 0-4 1.2-4.2 3h1.7c.2-1 1.1-1.5 2.4-1.5 1.5 0 2.4.8 2.4 2.2v1l-3 .1c-2.6.2-4 1.3-4 3.3 0 2 1.4 3.3 3.6 3.3Zm.6-1.5c-1.4 0-2.3-.7-2.3-1.9 0-1.1.8-1.8 2.4-1.9l2.8-.1v1.3c0 1.5-1.3 2.6-3 2.6Zm11.6-12.7v3h-3v1.5h3v6.2c0 2.3 1.2 3.4 4 3.4l2.1-.1v-1.5h-2c-1.6 0-2.4-.6-2.4-1.8v-6.2h4.5v-1.5h-4.5v-3h-1.7ZM72 73.4c-.4 1-1.4 1.5-2.8 1.5-1.9 0-3.1-1.3-3.1-3.3V71h7.5v-1c0-3.2-1.7-5.2-4.5-5.2s-4.7 2-4.7 4.9v1.6c0 3.2 1.7 5 4.8 5 2.3 0 4-1.2 4.4-3h-1.7Zm-3-7c1.8 0 3 1.3 3 3.4h-6c0-2.1 1.1-3.4 3-3.4Z"/><path fill="#D32F2F" d="M87.2 68.2v-1.7H76.4v1.7h10.8Zm0 4.7v-1.7H76.4v1.7h10.8Zm3.1-7.2 7 3.9v.2l-7 3.9v1.9l8.8-5.2V69l-8.8-5.1v2Z"/><path fill="#414141" d="M105.3 68.9c0 3.4 1 6.4 3.1 8.7h1.7a14.2 14.2 0 0 1 0-17.5h-1.7a13 13 0 0 0-3 8.8Zm19.1 8.7v-1.4h-1.1c-1.5 0-1.8-.4-1.8-2.1v-2.7c0-1.5-1-2.4-3.2-2.5v-.1c2.1 0 3.2-1 3.2-2.4v-2.8c0-1.7.3-2 1.8-2h1.1V60H123c-2.4 0-3.2.8-3.2 3.3v2.3c0 1.6-1 2.5-3.3 2.2v1.9c2.4-.3 3.3.7 3.3 2.2v2.3c0 2.5.8 3.3 3.2 3.3h1.4Zm4.9-9.5c0 1.6 1 2.6 3 3l1.6.5c1.4.3 2 .7 2 1.6 0 1-1 1.8-2.5 1.8-1.4 0-2.4-.6-2.7-1.7H129c.2 2 1.8 3.1 4.3 3.1 2.6 0 4.3-1.3 4.3-3.4 0-1.6-1-2.5-3-3l-1.6-.3c-1.4-.3-2-.8-2-1.7 0-1 1-1.6 2.3-1.6 1.3 0 2.2.6 2.4 1.5h1.7c-.2-1.8-1.7-3-4-3-2.5 0-4.1 1.3-4.1 3.2Zm19.9 5.3c-.3 1-1.4 1.5-2.8 1.5-1.8 0-3-1.3-3-3.3V71h7.5v-1c0-3.2-1.7-5.2-4.6-5.2-2.8 0-4.6 2-4.6 4.9v1.6c0 3.2 1.7 5 4.7 5 2.4 0 4.1-1.2 4.4-3h-1.6Zm-2.9-7c1.8 0 2.9 1.3 2.9 3.4h-5.8c0-2.1 1-3.4 3-3.4Zm17.4 2.2c-.3-2.3-2-3.7-4.4-3.7-3 0-4.8 1.9-4.8 5v1.5c0 3.2 1.8 5 4.8 5 2.4 0 4-1.4 4.4-3.6H162c-.3 1.2-1.3 2-2.8 2-1.9 0-3-1.3-3-3.6v-1c0-2.4 1.1-3.7 3-3.7 1.5 0 2.5.8 2.8 2.1h1.7Zm8.3 7.8c2.9 0 4.7-1.9 4.7-4.9v-1.7c0-3-1.8-4.8-4.8-4.8-2.9 0-4.7 1.9-4.7 4.8v1.7c0 3 1.8 5 4.7 5Zm0-10c1.8 0 3 1.4 3 3.6v1.4c0 2.1-1.2 3.5-3 3.5-2 0-3.1-1.4-3.1-3.5V70c0-2.2 1.2-3.5 3-3.5Zm8.3 9.8h1.7v-6.5c0-1.9 1.3-3.2 3-3.2 1.8 0 2.6 1 2.6 3v6.7h1.7V69c0-2.6-1.3-4-3.7-4-1.6 0-3 .7-3.5 2.1h-.1v-2h-1.7v11.1Zm16.7.2c1.6 0 2.7-.7 3.3-1.9h.2v1.7h1.7V60.8h-1.8v6h-.1c-.5-1.1-1.7-1.8-3.3-1.8-2.5 0-4.2 1.8-4.2 4.6v2.1c0 2.8 1.7 4.7 4.2 4.7Zm.5-1.6c-1.8 0-3-1.3-3-3.3v-1.6c0-2 1.2-3.4 3-3.4s3 1.3 3 3.4v1.6c0 2-1.2 3.3-3 3.3Zm9.1-6.7c0 1.6 1 2.6 3 3l1.6.5c1.4.3 2 .7 2 1.6 0 1-1 1.8-2.5 1.8s-2.4-.6-2.7-1.7h-1.8c.2 2 1.9 3.1 4.4 3.1 2.6 0 4.3-1.3 4.3-3.4 0-1.6-1-2.5-3.1-3l-1.6-.3c-1.4-.3-2-.8-2-1.7 0-1 1-1.6 2.4-1.6 1.3 0 2.2.6 2.4 1.5h1.7c-.2-1.8-1.8-3-4-3-2.5 0-4.1 1.3-4.1 3.2Z"/><path fill="#D32F2F" d="M223.4 68.4c1 0 1.9-.8 1.9-1.8s-.8-2-1.9-2c-1 0-1.8 1-1.8 2s.8 1.8 1.8 1.8Zm0 7.9c1 0 1.9-.9 1.9-2 0-1-.8-1.8-1.9-1.8-1 0-1.8.9-1.8 1.9 0 1 .8 1.9 1.8 1.9Z"/><path fill="#1976D2" d="M232.3 68.1c0 1.6 1 2.6 3 3l1.6.5c1.4.3 2 .7 2 1.6 0 1-1 1.8-2.5 1.8-1.4 0-2.4-.6-2.6-1.7H232c.2 2 1.8 3.1 4.3 3.1 2.7 0 4.4-1.3 4.4-3.4 0-1.6-1-2.5-3.2-3l-1.5-.3c-1.4-.3-2-.8-2-1.7 0-1 1-1.6 2.3-1.6 1.3 0 2.3.6 2.5 1.5h1.6c-.2-1.8-1.7-3-4-3-2.5 0-4 1.3-4 3.2Zm15-5.9v3h-3v1.5h3v6.2c0 2.3 1.3 3.4 4 3.4l2.2-.1v-1.5h-2c-1.6 0-2.4-.6-2.4-1.8v-6.2h4.4v-1.5H249v-3h-1.7ZM261 76.4c1.6 0 2.8-.7 3.3-1.8h.2v1.6h1.6v-7.6c0-2.3-1.5-3.6-4-3.6-2.3 0-4 1.2-4.2 3h1.7c.3-1 1.1-1.5 2.4-1.5 1.6 0 2.4.8 2.4 2.2v1l-3 .1c-2.5.2-4 1.3-4 3.3 0 2 1.5 3.3 3.6 3.3Zm.5-1.5c-1.4 0-2.3-.7-2.3-1.9 0-1.1.8-1.8 2.4-1.9l2.8-.1v1.3c0 1.5-1.3 2.6-3 2.6ZM273 62.2v3h-2.9v1.5h3v6.2c0 2.3 1.2 3.4 4 3.4l2.1-.1v-1.5h-2c-1.6 0-2.4-.6-2.4-1.8v-6.2h4.5v-1.5h-4.5v-3H273Zm17.8 11.2c-.3 1-1.3 1.5-2.7 1.5-1.9 0-3.1-1.3-3.1-3.3V71h7.5v-1c0-3.2-1.7-5.2-4.5-5.2s-4.7 2-4.7 4.9v1.6c0 3.2 1.8 5 4.8 5 2.3 0 4-1.2 4.4-3h-1.7Zm-2.8-7c1.7 0 2.8 1.3 2.8 3.4H285c0-2.1 1.1-3.4 3-3.4Z"/><path fill="#414141" d="M300.7 76.3c1 0 1.9-.9 1.9-2 0-1-.9-1.8-1.9-1.8-1 0-1.8.9-1.8 1.9 0 1 .8 1.9 1.8 1.9Zm8.9-8.2c0 1.6 1 2.6 3 3l1.6.5c1.4.3 2 .7 2 1.6 0 1-1 1.8-2.5 1.8s-2.4-.6-2.7-1.7h-1.7c.1 2 1.8 3.1 4.3 3.1 2.6 0 4.3-1.3 4.3-3.4 0-1.6-1-2.5-3.1-3l-1.6-.3c-1.3-.3-2-.8-2-1.7 0-1 1-1.6 2.4-1.6 1.3 0 2.2.6 2.4 1.5h1.7c-.2-1.8-1.8-3-4-3-2.5 0-4.1 1.3-4.1 3.2Zm19.8 5.3c-.3 1-1.3 1.5-2.7 1.5-1.9 0-3-1.3-3-3.3V71h7.5v-1c0-3.2-1.7-5.2-4.6-5.2-2.8 0-4.7 2-4.7 4.9v1.6c0 3.2 1.8 5 4.8 5 2.3 0 4-1.2 4.4-3h-1.7Zm-2.8-7c1.8 0 2.8 1.3 2.8 3.4h-5.8c0-2.1 1.1-3.4 3-3.4Zm17.4 2.2c-.3-2.3-2-3.7-4.5-3.7-3 0-4.7 1.9-4.7 5v1.5c0 3.2 1.7 5 4.7 5 2.5 0 4.2-1.4 4.4-3.6h-1.7c-.2 1.2-1.3 2-2.7 2-2 0-3-1.3-3-3.6v-1c0-2.4 1-3.7 3-3.7 1.4 0 2.5.8 2.7 2.1h1.7Zm8.2 7.8c3 0 4.8-1.9 4.8-4.9v-1.7c0-3-1.9-4.8-4.8-4.8s-4.8 1.9-4.8 4.8v1.7c0 3 1.9 5 4.8 5Zm0-10c2 0 3 1.4 3 3.6v1.4c0 2.1-1 3.5-3 3.5-1.9 0-3-1.4-3-3.5V70c0-2.2 1.1-3.5 3-3.5Zm8.4 9.8h1.7v-6.5c0-1.9 1.2-3.2 3-3.2s2.6 1 2.6 3v6.7h1.7V69c0-2.6-1.3-4-3.7-4-1.7 0-3 .7-3.5 2.1h-.2v-2h-1.6v11.1Zm16.7.2c1.6 0 2.7-.7 3.3-1.9h.2v1.7h1.7V60.8h-1.8v6h-.2c-.4-1.1-1.6-1.8-3.2-1.8-2.6 0-4.2 1.8-4.2 4.6v2.1c0 2.8 1.6 4.7 4.2 4.7Zm.5-1.6c-1.8 0-3-1.3-3-3.3v-1.6c0-2 1.2-3.4 3-3.4s3 1.3 3 3.4v1.6c0 2-1.2 3.3-3 3.3Zm9-6.7c0 1.6 1 2.6 3 3l1.6.5c1.4.3 2 .7 2 1.6 0 1-1 1.8-2.5 1.8-1.4 0-2.4-.6-2.6-1.7h-1.8c.2 2 1.9 3.1 4.4 3.1 2.6 0 4.3-1.3 4.3-3.4 0-1.6-1-2.5-3.1-3l-1.6-.3c-1.4-.3-2-.8-2-1.7 0-1 1-1.6 2.4-1.6 1.2 0 2.2.6 2.4 1.5h1.6c-.2-1.8-1.7-3-4-3-2.4 0-4 1.3-4 3.2Z"/><path fill="#D32F2F" d="M404.5 70.5h4.6v-1.6h-4.6v-4.6H403v4.6h-4.6v1.6h4.6V75h1.6v-4.6Z"/><path fill="#1976D2" d="M422.1 76.2v-1.6h-4v-13h-1.9l-4.3 2.7v2l4.2-2.8h.1v11.1H412v1.6h10.2Z"/><path fill="#414141" d="M425.5 77.6h1.4c2.5 0 3.2-.8 3.2-3.3V72c0-1.5 1-2.5 3.3-2.2v-1.9c-2.3.3-3.3-.6-3.3-2.2v-2.3c0-2.5-.7-3.3-3.2-3.3h-1.4v1.4h1.1c1.5 0 1.8.4 1.8 2.1v2.8c0 1.4 1.1 2.3 3.2 2.4v.1c-2.1 0-3.2 1-3.2 2.5V74c0 1.7-.3 2.1-1.8 2.1h-1v1.4Zm19.1-8.7c0-3.5-1-6.5-3-8.8h-1.8a14.2 14.2 0 0 1 0 17.5h1.7c2-2.3 3-5.3 3-8.7Zm12.8 0c0-3.5-1-6.5-3-8.8h-1.7a14.2 14.2 0 0 1 0 17.5h1.7c2-2.3 3-5.3 3-8.7Zm10.7-.5c1 0 1.8-.8 1.8-1.8s-.8-2-1.8-2-1.8 1-1.8 2 .8 1.8 1.8 1.8Zm-.9 11.2 2-6.6h-2.4l-1.2 6.6h1.6Zm9.8-2h1.4c2.5 0 3.3-.8 3.3-3.3V72c0-1.5.9-2.5 3.2-2.2v-1.9c-2.3.3-3.3-.6-3.3-2.2v-2.3c0-2.5-.7-3.3-3.2-3.3H477v1.4h1.1c1.5 0 1.8.4 1.8 2.1v2.8c0 1.4 1.1 2.3 3.2 2.4v.1c-2 0-3.2 1-3.2 2.5V74c0 1.7-.3 2.1-1.8 2.1h-1v1.4Z"/><path fill="#6F42C1" d="M498.5 68.6c-.3-2.3-2-3.7-4.4-3.7-3 0-4.8 1.9-4.8 5v1.5c0 3.2 1.8 5 4.8 5 2.4 0 4-1.4 4.4-3.6h-1.8c-.2 1.2-1.2 2-2.7 2-1.9 0-3-1.3-3-3.6v-1c0-2.4 1.1-3.7 3-3.7 1.5 0 2.5.8 2.7 2.1h1.8Zm8.2 7.8c3 0 4.8-1.9 4.8-4.9v-1.7c0-3-1.8-4.8-4.8-4.8-2.9 0-4.7 1.9-4.7 4.8v1.7c0 3 1.8 5 4.7 5Zm0-10c2 0 3.1 1.4 3.1 3.6v1.4c0 2.1-1.2 3.5-3 3.5-2 0-3.1-1.4-3.1-3.5V70c0-2.2 1.1-3.5 3-3.5ZM525 68c0-2-.9-3-2.4-3-1.1 0-2 .6-2.3 1.7h-.2c-.2-1.1-1-1.8-2-1.8s-1.8.7-2 1.8h-.3v-1.5h-1.5v11h1.5v-7.5c0-1.3.7-2.2 1.6-2.2 1 0 1.5.7 1.5 2v7.7h1.5v-7.5c0-1.3.6-2.2 1.6-2.2.9 0 1.4.7 1.4 2v7.7h1.5v-8.1Zm8.2-3c-1.6 0-2.8.6-3.3 1.8h-.2v-1.6H528v14.7h1.7v-5.4h.2c.5 1.2 1.7 1.9 3.3 1.9 2.5 0 4.2-1.9 4.2-4.7v-2c0-2.9-1.7-4.7-4.2-4.7Zm-.5 1.6c1.8 0 3 1.3 3 3.3v1.6c0 2-1.2 3.3-3 3.3s-3-1.3-3-3.3v-1.6c0-2 1.2-3.3 3-3.3Zm12.7 9.8c2.9 0 4.7-1.9 4.7-4.9v-1.7c0-3-1.8-4.8-4.7-4.8-3 0-4.8 1.9-4.8 4.8v1.7c0 3 1.8 5 4.8 5Zm0-10c1.9 0 3 1.4 3 3.6v1.4c0 2.1-1.1 3.5-3 3.5-2 0-3.1-1.4-3.1-3.5V70c0-2.2 1.2-3.5 3-3.5Zm8.3 9.8h1.7v-6.5c0-1.9 1.3-3.2 3-3.2 1.8 0 2.6 1 2.6 3v6.7h1.8V69c0-2.6-1.3-4-3.8-4-1.6 0-2.9.7-3.5 2.1h-.1v-2h-1.7v11.1Zm20.3-2.8c-.2 1-1.2 1.5-2.6 1.5-2 0-3.1-1.3-3.1-3.3V71h7.5v-1c0-3.2-1.7-5.2-4.6-5.2-2.8 0-4.6 2-4.6 4.9v1.6c0 3.2 1.7 5 4.8 5 2.3 0 4-1.2 4.4-3H574Zm-2.8-7c1.8 0 2.9 1.3 2.9 3.4h-5.8c0-2.1 1-3.4 3-3.4Zm8.3 9.8h1.7v-6.5c0-1.9 1.2-3.2 3-3.2s2.6 1 2.6 3v6.7h1.7V69c0-2.6-1.3-4-3.7-4-1.7 0-3 .7-3.5 2.1h-.2v-2h-1.6v11.1Zm15.5-14v3h-3v1.5h3v6.2c0 2.3 1.3 3.4 4 3.4l2.1-.1v-1.5h-2c-1.5 0-2.4-.6-2.4-1.8v-6.2h4.5v-1.5h-4.5v-3H595Zm10-.7v14.7h4c4.2 0 6.3-2.5 6.3-7.4 0-4.8-2.1-7.3-6.3-7.3h-4Zm1.7 1.7h2.2c3 0 4.6 1.8 4.6 5.6 0 4-1.5 5.8-4.6 5.8h-2.2V63.2Zm16.1-.8c.8 0 1.4-.6 1.4-1.4 0-.8-.6-1.4-1.4-1.4-.8 0-1.4.6-1.4 1.4 0 .8.6 1.4 1.4 1.4Zm4.6 13.8v-1.4h-3.6v-9.6h-5.5v1.4h3.8v8.2h-3.8v1.4h9.1Zm7.4.2c1.6 0 2.7-.7 3.3-1.9h.2v1.7h1.7V60.8h-1.8v6h-.1c-.5-1.1-1.7-1.8-3.3-1.8-2.6 0-4.2 1.8-4.2 4.6v2.1c0 2.8 1.6 4.7 4.2 4.7Zm.5-1.6c-1.8 0-3-1.3-3-3.3v-1.6c0-2 1.2-3.4 3-3.4s3 1.3 3 3.4v1.6c0 2-1.2 3.3-3 3.3Zm9.4-4.2-.1-6h.1l3 8.2h1.4l3-8.2v11.6h1.6V61.5h-2l-3.3 9.1-3.3-9h-2v14.6h1.6v-5.6Zm16.5 5.8c3 0 4.8-1.9 4.8-4.9v-1.7c0-3-1.8-4.8-4.8-4.8-2.9 0-4.7 1.9-4.7 4.8v1.7c0 3 1.8 5 4.7 5Zm0-10c2 0 3.1 1.4 3.1 3.6v1.4c0 2.1-1.2 3.5-3 3.5-2 0-3.1-1.4-3.1-3.5V70c0-2.2 1.2-3.5 3-3.5Zm17.4-1.2H677v6.5c0 1.8-1.2 3.1-3 3.1s-2.6-1-2.6-3v-6.6h-1.7v7.1c0 2.7 1.3 4.1 3.7 4.1 1.7 0 3-.8 3.5-2.1h.2v2h1.6V65.1Zm3.9 11h1.7v-6.5c0-1.9 1.2-3.2 3-3.2s2.6 1 2.6 3v6.7h1.7V69c0-2.6-1.3-4-3.7-4-1.7 0-3 .7-3.5 2.1h-.2v-2h-1.6v11.1Zm15.5-14v3h-3v1.5h3v6.2c0 2.3 1.3 3.4 4 3.4l2.1-.1v-1.5h-2c-1.5 0-2.4-.6-2.4-1.8v-6.2h4.5v-1.5h-4.5v-3H698Z"/><path fill="#414141" d="M710.5 68.9c0 3.4 1 6.4 3 8.7h1.8a14.2 14.2 0 0 1 0-17.5h-1.7a13 13 0 0 0-3 8.8Zm17.3 0c0-3.5-1-6.5-3-8.8H723a14.2 14.2 0 0 1 0 17.5h1.7c2-2.3 3-5.3 3-8.7ZM8.5 107.4V106H7.4c-1.5 0-1.8-.3-1.8-2.1v-2.7c0-1.5-1-2.4-3.1-2.5v-.1c2 0 3-1 3-2.4v-2.8c0-1.7.4-2 1.9-2h1.1v-1.5H7.1c-2.4 0-3.2.8-3.2 3.3v2.3c0 1.6-1 2.5-3.3 2.2v1.9c2.4-.3 3.3.7 3.3 2.2v2.3c0 2.5.8 3.3 3.2 3.3h1.4Z"/><path fill="#1976D2" d="M15.5 92v3h-2.9v1.5h3v6.2c0 2.3 1.2 3.4 4 3.4l2.1-.1v-1.5h-2c-1.6 0-2.4-.6-2.4-1.8v-6.2h4.4V95h-4.4v-3h-1.8Zm10.3 14h1.7v-6.5c0-1.9 1.2-3.2 3-3.2s2.6 1 2.6 3v6.7h1.7v-7.2c0-2.6-1.3-4-3.7-4-1.7 0-3 .7-3.5 2.1h-.2v-6.3h-1.6V106Zm17.6-13.8c.8 0 1.4-.6 1.4-1.4 0-.8-.6-1.4-1.4-1.4-.8 0-1.5.6-1.5 1.4 0 .8.7 1.4 1.5 1.4ZM48 106v-1.4h-3.7V95H39v1.4h3.7v8.2H39v1.4h9Zm4-8c0 1.5 1 2.5 3 3l1.7.4c1.4.3 1.9.7 1.9 1.6 0 1-1 1.8-2.5 1.8-1.4 0-2.4-.6-2.6-1.7h-1.8c.2 2 1.9 3.1 4.4 3.1 2.6 0 4.3-1.3 4.3-3.4 0-1.6-1-2.5-3.1-3l-1.6-.3c-1.4-.3-2-.8-2-1.7 0-1 1-1.6 2.4-1.6 1.3 0 2.2.6 2.4 1.5h1.7c-.3-1.8-1.8-3-4.1-3-2.4 0-4 1.3-4 3.2Z"/><path fill="#414141" d="M69 106c1 0 1.8-.8 1.8-1.8s-.9-1.9-1.9-1.9c-1 0-1.8.9-1.8 1.9 0 1 .8 1.9 1.8 1.9Zm13-13.8c.8 0 1.4-.6 1.4-1.4 0-.8-.6-1.4-1.4-1.4-.8 0-1.4.6-1.4 1.4 0 .8.6 1.4 1.4 1.4Zm4.6 13.8v-1.4H83V95h-5.5v1.4h3.8v8.2h-3.8v1.4h9.1Zm3.6 0h1.7v-6.5c0-1.9 1.2-3.2 3-3.2s2.6 1 2.6 3v6.7h1.7v-7.2c0-2.6-1.3-4-3.7-4-1.7 0-3 .7-3.5 2.1h-.2v-2h-1.6V106Zm15.5-14v3h-3v1.5h3v6.2c0 2.3 1.2 3.4 4 3.4l2.1-.1v-1.5h-2c-1.6 0-2.4-.6-2.4-1.8v-6.2h4.5V95h-4.5v-3h-1.7Zm17.7 11.2c-.3 1-1.3 1.5-2.7 1.5-1.9 0-3.1-1.3-3.1-3.3v-.5h7.5v-1c0-3.2-1.7-5.1-4.5-5.1s-4.7 1.9-4.7 4.8v1.6c0 3.2 1.8 5 4.8 5 2.3 0 4-1.2 4.4-3h-1.7Zm-2.8-7c1.7 0 2.8 1.3 2.8 3.4h-5.8c0-2.1 1.1-3.4 3-3.4Zm12.3 4.8c0-2.8 1.4-4.4 3.9-4.4.6 0 1.3 0 1.8.3v-2l-1.6-.2c-2.1 0-3.5 1-4 3h-.2V95h-4v1.3h2.4v8.3H129v1.4h7.3v-1.4h-3.4v-3.5Zm8.3-6 4 11h2l4-11h-1.9l-3 9.2h-.2l-3-9.2h-1.9Zm16.8 11.2c1.5 0 2.7-.7 3.3-1.8h.1v1.6h1.7v-7.6c0-2.3-1.5-3.6-4-3.6-2.3 0-4 1.2-4.3 3h1.7c.3-1 1.2-1.5 2.5-1.5 1.5 0 2.4.8 2.4 2.2v1l-3 .1c-2.6.2-4 1.3-4 3.3 0 2 1.4 3.3 3.5 3.3Zm.4-1.5c-1.4 0-2.2-.7-2.2-1.9 0-1.1.8-1.8 2.3-1.9l2.9-.1v1.3c0 1.5-1.3 2.6-3 2.6Zm18.4 1.3v-1.4H173v-14h-5.5v1.5h3.8v12.5h-3.8v1.4h9.2Z"/><path fill="#D32F2F" d="M190.2 98v-1.7h-10.8V98h10.8Zm0 4.7V101h-10.8v1.7h10.8Z"/><path fill="#6F42C1" d="M193.7 98c0 1.5 1 2.5 3 3l1.6.4c1.4.3 2 .7 2 1.6 0 1-1 1.8-2.5 1.8s-2.4-.6-2.7-1.7h-1.7c.2 2 1.8 3.1 4.3 3.1 2.6 0 4.3-1.3 4.3-3.4 0-1.6-1-2.5-3.1-3l-1.6-.3c-1.3-.3-2-.8-2-1.7 0-1 1-1.6 2.4-1.6 1.3 0 2.2.6 2.4 1.5h1.7c-.2-1.8-1.8-3-4-3-2.5 0-4.1 1.3-4.1 3.2Zm19.8 5.2c-.3 1-1.3 1.5-2.7 1.5-1.9 0-3-1.3-3-3.3v-.5h7.5v-1c0-3.2-1.7-5.1-4.6-5.1-2.8 0-4.7 1.9-4.7 4.8v1.6c0 3.2 1.8 5 4.8 5 2.3 0 4-1.2 4.4-3h-1.7Zm-2.8-7c1.8 0 2.8 1.3 2.8 3.4h-5.8c0-2.1 1.1-3.4 3-3.4Zm10.9-4.2v3h-3v1.5h3v6.2c0 2.3 1.2 3.4 4 3.4l2.1-.1v-1.5h-2c-1.6 0-2.4-.6-2.4-1.8v-6.2h4.4V95h-4.4v-3h-1.7Zm18.6 14v-1.6h-3V93h3v-1.6h-7.7V93h3v11.5h-3v1.6h7.7Zm4.5 0h1.7v-6.5c0-1.9 1.2-3.2 3-3.2s2.6 1 2.6 3v6.7h1.7v-7.2c0-2.6-1.3-4-3.7-4-1.7 0-3 .7-3.5 2.1h-.2v-2h-1.6V106Zm15.5-14v3h-3v1.5h3v6.2c0 2.3 1.3 3.4 4 3.4l2.1-.1v-1.5h-2c-1.5 0-2.4-.6-2.4-1.8v-6.2h4.5V95h-4.5v-3h-1.7Zm17.8 11.2c-.4 1-1.4 1.5-2.8 1.5-1.9 0-3-1.3-3-3.3v-.5h7.4v-1c0-3.2-1.7-5.1-4.5-5.1s-4.7 1.9-4.7 4.8v1.6c0 3.2 1.8 5 4.8 5 2.3 0 4-1.2 4.4-3H278Zm-3-7c1.8 0 3 1.3 3 3.4h-6c0-2.1 1.1-3.4 3-3.4Zm12.4 4.8c0-2.8 1.4-4.4 3.9-4.4.6 0 1.3 0 1.8.3v-2l-1.6-.2c-2.1 0-3.5 1-4 3h-.1V95h-4.2v1.3h2.5v8.3h-2.2v1.4h7.3v-1.4h-3.4v-3.5Zm8.3-6 4 11h2l4-11h-1.9l-3 9.2h-.2l-3-9.2h-1.9Zm16.8 11.2c1.6 0 2.8-.7 3.3-1.8h.2v1.6h1.6v-7.6c0-2.3-1.5-3.6-4-3.6-2.3 0-4 1.2-4.2 3h1.7c.2-1 1.1-1.5 2.4-1.5 1.6 0 2.4.8 2.4 2.2v1l-3 .1c-2.5.2-4 1.3-4 3.3 0 2 1.5 3.3 3.6 3.3Zm.5-1.5c-1.4 0-2.3-.7-2.3-1.9 0-1.1.8-1.8 2.4-1.9l2.8-.1v1.3c0 1.5-1.3 2.6-3 2.6Zm18.3 1.3v-1.4h-3.7v-14h-5.4v1.5h3.7v12.5h-3.8v1.4h9.2Z"/><path fill="#414141" d="M337.1 98.7c0 3.4 1 6.4 3 8.7h1.8a14.2 14.2 0 0 1 0-17.5h-1.7a13 13 0 0 0-3 8.8Zm12.9 0c0 3.4 1 6.4 3 8.7h1.8a14.2 14.2 0 0 1 0-17.5H353a13 13 0 0 0-3.1 8.8Zm17.3 0c0-3.5-1-6.5-3-8.8h-1.8a14.2 14.2 0 0 1 0 17.5h1.7a13 13 0 0 0 3.1-8.7Z"/><path fill="#D32F2F" d="M383.4 98v-1.7h-10.8V98h10.8Zm0 4.7V101h-10.8v1.7h10.8Zm3.1-7.2 7 3.9v.2l-7 3.9v2l8.7-5.3v-1.5l-8.7-5.1v2Z"/><path fill="#1976D2" d="M401.8 92v3H399v1.5h3v6.2c0 2.3 1.2 3.4 4 3.4l2.1-.1v-1.5h-2c-1.6 0-2.4-.6-2.4-1.8v-6.2h4.4V95h-4.4v-3h-1.8Zm10.2 14h1.8v-6.5c0-1.9 1.2-3.2 3-3.2s2.6 1 2.6 3v6.7h1.7v-7.2c0-2.6-1.3-4-3.7-4-1.7 0-3 .7-3.5 2.1h-.2v-6.3h-1.6V106Zm17.7-13.8c.8 0 1.4-.6 1.4-1.4 0-.8-.6-1.4-1.4-1.4-.8 0-1.5.6-1.5 1.4 0 .8.7 1.4 1.5 1.4Zm4.6 13.8v-1.4h-3.7V95h-5.4v1.4h3.7v8.2h-3.7v1.4h9.1Zm4-8c0 1.5 1 2.5 3 3l1.7.4c1.4.3 1.9.7 1.9 1.6 0 1-1 1.8-2.5 1.8-1.4 0-2.4-.6-2.6-1.7H438c.2 2 1.9 3.1 4.4 3.1 2.6 0 4.3-1.3 4.3-3.4 0-1.6-1-2.5-3.1-3l-1.6-.3c-1.4-.3-2-.8-2-1.7 0-1 1-1.6 2.4-1.6 1.3 0 2.2.6 2.4 1.5h1.7c-.2-1.8-1.8-3-4.1-3-2.4 0-4 1.3-4 3.2Z"/><path fill="#6F42C1" d="M455.2 106c1 0 1.9-.8 1.9-1.8s-.9-1.9-1.9-1.9c-1 0-1.8.9-1.8 1.9 0 1 .8 1.9 1.8 1.9Zm11-14v3h-3v1.5h3v6.2c0 2.3 1.3 3.4 4 3.4l2.2-.1v-1.5h-2c-1.6 0-2.4-.6-2.4-1.8v-6.2h4.4V95H468v-3h-1.7Zm15 .2c.8 0 1.4-.6 1.4-1.4 0-.8-.6-1.4-1.4-1.4-.8 0-1.5.6-1.5 1.4 0 .8.7 1.4 1.5 1.4Zm4.6 13.8v-1.4h-3.6V95h-5.5v1.4h3.7v8.2h-3.7v1.4h9.1Zm12.7-7.6c-.3-2.3-2-3.7-4.4-3.7-3 0-4.8 1.9-4.8 5v1.5c0 3.2 1.8 5 4.8 5 2.4 0 4-1.4 4.4-3.6h-1.8c-.2 1.2-1.2 2-2.7 2-1.9 0-3-1.3-3-3.6v-1c0-2.4 1.1-3.7 3-3.7 1.5 0 2.5.8 2.7 2.1h1.8Zm6.4 1.6h-.1v-9.4H503V106h1.8v-4l1.5-1.5 3.8 5.5h2l-4.6-6.7 4.3-4.3h-2l-5 5Z"/><path fill="#414141" d="M517.4 98.7c0 3.4 1 6.4 3 8.7h1.8a14.2 14.2 0 0 1 0-17.5h-1.7a13 13 0 0 0-3.1 8.8Zm17.3 0c0-3.5-1-6.5-3-8.8h-1.8a14.2 14.2 0 0 1 0 17.5h1.7a13 13 0 0 0 3.1-8.7Z"/><path fill="#212121" d="m544.4 109.4 2-6.6H544l-1.3 6.6h1.6Z"/><path fill="#1976D2" d="M563.8 106v-1.6h-4.1v-13h-1.8l-4.4 2.7v2l4.2-2.8h.2v11.1h-4.3v1.6h10.2Zm7.3.3c3.2 0 5-2.7 5-7.6 0-5-1.8-7.7-5-7.7s-5 2.7-5 7.7 1.8 7.6 5 7.6Zm-3.1-7.6c0-4 1-6.1 3.1-6.1 1.4 0 2.4 1 2.9 2.7l-6 5v-1.6Zm3.1 6c-1.3 0-2.3-.9-2.8-2.7l6-5v1.7c0 4-1 6-3.2 6Zm12.9 1.6c3.2 0 5-2.7 5-7.6 0-5-1.8-7.7-5-7.7s-5 2.7-5 7.7 1.8 7.6 5 7.6Zm-3.2-7.6c0-4 1.1-6.1 3.2-6.1 1.4 0 2.4 1 2.8 2.7l-5.9 5v-1.6Zm3.2 6c-1.4 0-2.3-.9-2.8-2.7l5.9-5v1.7c0 4-1 6-3 6Zm12.9 1.6c3.2 0 5-2.7 5-7.6 0-5-1.8-7.7-5-7.7s-5 2.7-5 7.7 1.8 7.6 5 7.6Zm-3.2-7.6c0-4 1.1-6.1 3.2-6.1 1.4 0 2.3 1 2.8 2.7l-6 5v-1.6Zm3.2 6c-1.4 0-2.3-.9-2.8-2.7l5.9-5v1.7c0 4-1 6-3.1 6Z"/><path fill="#414141" d="M612 98.7c0-3.5-1-6.5-3-8.8h-1.8a14.2 14.2 0 0 1 0 17.5h1.7c2-2.3 3-5.3 3-8.7Zm10.6-.5c1 0 1.9-.8 1.9-1.8s-.9-2-1.9-2c-1 0-1.8 1-1.8 2s.8 1.8 1.8 1.8Zm-.9 11.2 2-6.6h-2.3l-1.3 6.6h1.6Zm9.8-2h1.4c2.5 0 3.3-.8 3.3-3.3v-2.3c0-1.5.9-2.5 3.3-2.2v-1.9c-2.4.3-3.3-.6-3.3-2.2v-2.3c0-2.5-.8-3.3-3.3-3.3h-1.4v1.4h1.1c1.6 0 1.9.4 1.9 2.1v2.8c0 1.4 1 2.3 3.1 2.4v.1c-2 0-3.1 1-3.1 2.5v2.7c0 1.8-.3 2.1-1.9 2.1h-1v1.4Z"/><path fill="#6F42C1" d="M653 98.4c-.3-2.3-2-3.7-4.4-3.7-3 0-4.8 1.9-4.8 5v1.5c0 3.2 1.8 5 4.8 5 2.4 0 4.1-1.4 4.4-3.6h-1.7c-.2 1.2-1.3 2-2.7 2-2 0-3-1.3-3-3.6v-1c0-2.4 1-3.7 3-3.7 1.4 0 2.5.8 2.7 2.1h1.7Zm8.3 7.8c2.9 0 4.7-1.9 4.7-4.9v-1.6c0-3-1.8-5-4.7-5-3 0-4.8 2-4.8 5v1.6c0 3 1.8 5 4.8 5Zm0-10c1.9 0 3 1.4 3 3.6v1.4c0 2.1-1.1 3.5-3 3.5-2 0-3.1-1.4-3.1-3.5v-1.4c0-2.2 1.2-3.5 3-3.5Zm18.2 1.7c0-2-.8-3.1-2.4-3.1-1 0-2 .6-2.3 1.7h-.1c-.3-1.1-1-1.7-2-1.7s-1.9.6-2.1 1.7h-.2V95h-1.6v11h1.6v-7.5c0-1.3.6-2.2 1.6-2.2.9 0 1.4.7 1.4 2v7.7h1.5v-7.5c0-1.3.6-2.2 1.6-2.2s1.4.7 1.4 2v7.7h1.6v-8Zm8.2-3.1c-1.6 0-2.7.6-3.3 1.8h-.2V95h-1.7v14.7h1.8v-5.4h.2c.4 1.2 1.6 1.9 3.2 1.9 2.6 0 4.2-1.9 4.2-4.7v-2c0-2.9-1.6-4.7-4.2-4.7Zm-.5 1.6c1.8 0 3 1.3 3 3.3v1.6c0 2-1.2 3.3-3 3.3s-3-1.3-3-3.3v-1.6c0-2 1.2-3.3 3-3.3Zm12.7 9.8c3 0 4.8-1.9 4.8-4.9v-1.6c0-3-1.9-5-4.8-5-3 0-4.8 2-4.8 5v1.6c0 3 1.9 5 4.8 5Zm0-10c1.9 0 3 1.4 3 3.6v1.4c0 2.1-1.1 3.5-3 3.5s-3-1.4-3-3.5v-1.4c0-2.2 1.1-3.5 3-3.5Zm8.4 9.8h1.7v-6.5c0-1.9 1.2-3.2 3-3.2 1.7 0 2.6 1 2.6 3v6.7h1.7v-7.2c0-2.6-1.3-4-3.7-4-1.7 0-3 .7-3.5 2.1h-.2v-2h-1.6V106Zm20.3-2.8c-.3 1-1.3 1.5-2.7 1.5-1.9 0-3-1.3-3-3.3v-.5h7.4v-1c0-3.2-1.7-5.1-4.5-5.1s-4.7 1.9-4.7 4.8v1.6c0 3.2 1.8 5 4.8 5 2.3 0 4-1.2 4.4-3h-1.7Zm-2.8-7c1.7 0 2.8 1.3 2.8 3.4h-5.8c0-2.1 1.1-3.4 3-3.4Zm8.2 9.8h1.7v-6.5c0-1.9 1.3-3.2 3-3.2 1.8 0 2.6 1 2.6 3v6.7h1.7v-7.2c0-2.6-1.3-4-3.7-4-1.6 0-2.9.7-3.5 2.1h-.1v-2H734V106Zm15.5-14v3h-3v1.5h3v6.2c0 2.3 1.3 3.4 4 3.4l2.2-.1v-1.5h-2c-1.6 0-2.5-.6-2.5-1.8v-6.2h4.5V95h-4.5v-3h-1.7Zm14.8 4.9 2.2 9.1h1.7l2.5-14.7H769l-.9 5.9-.9 6.1-2.1-8.6h-1.6l-2 8.6h-.2l-.9-6.1-.9-5.9h-1.7l2.6 14.7h1.6l2.2-9.1h.1Zm13-4.7c.9 0 1.5-.6 1.5-1.4 0-.8-.6-1.4-1.5-1.4-.8 0-1.4.6-1.4 1.4 0 .8.6 1.4 1.4 1.4ZM782 106v-1.4h-3.7V95H773v1.4h3.7v8.2h-3.8v1.4h9.2Zm12.8 0v-1.4h-3.6v-14h-5.5v1.5h3.8v12.5h-3.8v1.4h9.1Zm12.9 0v-1.4h-3.6v-14h-5.5v1.5h3.8v12.5h-3.8v1.4h9.1Zm8.1-1.4c-2.2 0-3.4-1.4-3.4-3.8v-9.5h-1.8v9.6c0 3.4 2 5.4 5.2 5.4s5.1-2 5.1-5.4v-9.6h-1.7v9.5c0 2.4-1.3 3.8-3.4 3.8Zm8.3 1.4h1.8v-6.5c0-1.9 1.2-3.2 3-3.2 1.7 0 2.5 1 2.5 3v6.7h1.8v-7.2c0-2.6-1.3-4-3.7-4-1.7 0-3 .7-3.6 2.1h-.1v-2H824V106Zm22.7-8.1c0-2-.8-3.1-2.3-3.1-1.1 0-2 .6-2.3 1.7h-.2c-.2-1.1-1-1.7-2-1.7s-1.8.6-2 1.7h-.2V95h-1.6v11h1.6v-7.5c0-1.3.6-2.2 1.6-2.2.9 0 1.4.7 1.4 2v7.7h1.5v-7.5c0-1.3.6-2.2 1.6-2.2.9 0 1.4.7 1.4 2v7.7h1.5v-8Zm7.6 8.3c3 0 4.8-1.9 4.8-4.9v-1.6c0-3-1.9-5-4.8-5-3 0-4.8 2-4.8 5v1.6c0 3 1.9 5 4.8 5Zm0-10c1.9 0 3 1.4 3 3.6v1.4c0 2.1-1.1 3.5-3 3.5s-3-1.4-3-3.5v-1.4c0-2.2 1.1-3.5 3-3.5Zm17.4-1.2H870v6.5a3 3 0 0 1-3 3.1c-1.8 0-2.6-1-2.6-3V95h-1.7v7.1c0 2.7 1.3 4.1 3.7 4.1 1.6 0 2.9-.8 3.5-2.1h.1v2h1.7V95Zm3.8 11h1.8v-6.5c0-1.9 1.2-3.2 3-3.2 1.7 0 2.5 1 2.5 3v6.7h1.8v-7.2c0-2.6-1.3-4-3.7-4-1.7 0-3 .7-3.6 2.1h-.1v-2h-1.7V106Zm15.5-14v3h-2.9v1.5h3v6.2c0 2.3 1.2 3.4 4 3.4l2.1-.1v-1.5h-2c-1.6 0-2.4-.6-2.4-1.8v-6.2h4.4V95H893v-3h-2Z"/><path fill="#414141" d="M903.7 98.7c0 3.4 1 6.4 3 8.7h1.8a14.2 14.2 0 0 1 0-17.5h-1.7a13 13 0 0 0-3.1 8.8Zm17.3 0c0-3.5-1-6.5-3-8.8h-1.8a14.2 14.2 0 0 1 0 17.5h1.7a13 13 0 0 0 3.1-8.7ZM8.5 137.2v-1.4H7.4c-1.5 0-1.8-.3-1.8-2.1V131c0-1.5-1-2.4-3.1-2.5v-.1c2 0 3-1 3-2.4v-2.8c0-1.7.4-2 1.9-2h1.1v-1.5H7.1c-2.4 0-3.2.8-3.2 3.3v2.3c0 1.6-1 2.5-3.3 2.2v1.9c2.4-.3 3.3.7 3.3 2.2v2.3c0 2.5.8 3.3 3.2 3.3h1.4Z"/><path fill="#6F42C1" d="M22 128.2c-.3-2.3-2-3.7-4.4-3.7-3 0-4.7 1.9-4.7 5v1.5c0 3.2 1.7 5 4.7 5 2.5 0 4.1-1.4 4.4-3.6h-1.7c-.2 1.2-1.3 2-2.7 2-2 0-3-1.3-3-3.6v-1c0-2.4 1-3.7 3-3.7 1.4 0 2.5.8 2.7 2.1H22Zm13.1 7.6v-1.4h-3.6v-14H26v1.5h3.8v12.5H26v1.4h9Zm11.1-2.8c-.3 1-1.4 1.5-2.8 1.5-1.9 0-3-1.3-3-3.3v-.5h7.5v-1c0-3.2-1.7-5.1-4.6-5.1-2.8 0-4.7 1.9-4.7 4.8v1.6c0 3.2 1.8 5 4.8 5 2.3 0 4.1-1.2 4.4-3h-1.6Zm-2.9-7c1.8 0 2.9 1.3 2.9 3.4h-5.9c0-2.1 1.2-3.4 3-3.4ZM55 136c1.5 0 2.7-.7 3.3-1.8h.1v1.6h1.7v-7.6c0-2.3-1.5-3.6-4-3.6-2.3 0-4 1.2-4.3 3h1.7c.3-1 1.2-1.5 2.5-1.5 1.5 0 2.4.8 2.4 2.2v1l-3 .1c-2.6.2-4 1.3-4 3.3 0 2 1.4 3.3 3.5 3.3Zm.4-1.5c-1.4 0-2.2-.7-2.2-1.9 0-1.1.8-1.8 2.3-1.9l2.9-.1v1.3c0 1.5-1.3 2.6-3 2.6Zm13.1-3.6c0-2.9 1.4-4.5 3.9-4.5.6 0 1.3 0 1.8.3v-2l-1.6-.2c-2.1 0-3.5 1-4 3h-.1v-2.7h-4.1v1.3h2.4v8.3h-2.2v1.4h7.3v-1.4h-3.4V131Zm17.2 4.9v-1.6h-3v-11.5h3v-1.6h-7.8v1.6h3v11.5h-3v1.6h7.8Zm4.5 0h1.7v-6.5c0-1.9 1.2-3.2 3-3.2s2.6 1 2.6 3v6.7h1.7v-7.2c0-2.6-1.3-4-3.7-4-1.7 0-3 .7-3.5 2.1h-.2v-2h-1.6v11.1Zm15.5-14v3h-3v1.5h3v6.2c0 2.3 1.2 3.4 4 3.4l2.1-.1v-1.5h-2c-1.6 0-2.4-.6-2.4-1.8v-6.2h4.5v-1.5h-4.5v-3h-1.7Zm17.7 11.2c-.3 1-1.3 1.5-2.7 1.5-1.9 0-3.1-1.3-3.1-3.3v-.5h7.5v-1c0-3.2-1.7-5.1-4.5-5.1s-4.7 1.9-4.7 4.8v1.6c0 3.2 1.8 5 4.8 5 2.3 0 4-1.2 4.4-3h-1.7Zm-2.8-7c1.7 0 2.8 1.3 2.8 3.4h-5.8c0-2.1 1.1-3.4 3-3.4Zm12.3 4.9c0-2.9 1.4-4.5 3.9-4.5.6 0 1.3 0 1.8.3v-2l-1.6-.2c-2.1 0-3.5 1-4 3h-.2v-2.7h-4v1.3h2.4v8.3H129v1.4h7.3v-1.4h-3.4V131Zm8.3-6.1 4 11h2l4-11h-1.9l-3 9.2h-.2l-3-9.2h-1.9ZM158 136c1.5 0 2.7-.7 3.3-1.8h.1v1.6h1.7v-7.6c0-2.3-1.5-3.6-4-3.6-2.3 0-4 1.2-4.3 3h1.7c.3-1 1.2-1.5 2.5-1.5 1.5 0 2.4.8 2.4 2.2v1l-3 .1c-2.6.2-4 1.3-4 3.3 0 2 1.4 3.3 3.5 3.3Zm.4-1.5c-1.4 0-2.2-.7-2.2-1.9 0-1.1.8-1.8 2.3-1.9l2.9-.1v1.3c0 1.5-1.3 2.6-3 2.6Zm18.4 1.3v-1.4H173v-14h-5.5v1.5h3.8v12.5h-3.8v1.4h9.2Z"/><path fill="#414141" d="M182.6 128.5c0 3.4 1 6.4 3 8.7h1.8a14.2 14.2 0 0 1 0-17.5h-1.7a13 13 0 0 0-3.1 8.8Z"/><path fill="#1976D2" d="M195.8 121.8v3h-3v1.5h3v6.2c0 2.3 1.3 3.4 4 3.4l2.2-.1v-1.5h-2c-1.6 0-2.5-.6-2.5-1.8v-6.2h4.5v-1.5h-4.5v-3h-1.7Zm10.2 14h1.8v-6.5c0-1.9 1.2-3.1 3-3.1s2.6.9 2.6 2.9v6.7h1.7v-7.2c0-2.6-1.3-4-3.7-4-1.7 0-3 .7-3.5 2.1h-.2v-6.3H206v15.4Zm17.6-13.8c.9 0 1.5-.6 1.5-1.4 0-.8-.6-1.4-1.5-1.4-.8 0-1.4.6-1.4 1.4 0 .8.6 1.4 1.4 1.4Zm4.7 13.8v-1.4h-3.7v-9.6h-5.4v1.4h3.7v8.2h-3.8v1.4h9.2Zm4-8.1c0 1.6 1 2.6 3 3l1.6.5c1.4.3 2 .7 2 1.6 0 1-1 1.8-2.5 1.8-1.4 0-2.4-.6-2.7-1.7H232c.2 2 1.8 3.1 4.3 3.1 2.7 0 4.4-1.3 4.4-3.4 0-1.5-1-2.5-3.2-3l-1.5-.3c-1.4-.3-2-.8-2-1.7 0-1 1-1.6 2.3-1.6 1.3 0 2.2.6 2.5 1.5h1.6c-.2-1.8-1.7-3-4-3-2.5 0-4.1 1.3-4.1 3.2Z"/><path fill="#414141" d="M249.2 135.9c1 0 1.8-.9 1.8-2 0-1-.8-1.8-1.8-1.8s-1.8.9-1.8 1.9c0 1 .8 1.9 1.8 1.9Zm13.1-13.9c.8 0 1.4-.6 1.4-1.4 0-.8-.6-1.4-1.4-1.4-.8 0-1.5.6-1.5 1.4 0 .8.7 1.4 1.5 1.4Zm4.6 13.8v-1.4h-3.7v-9.6h-5.4v1.4h3.7v8.2h-3.8v1.4h9.2Zm3.5 0h1.8v-6.5c0-1.9 1.2-3.2 3-3.2 1.7 0 2.5 1 2.5 3v6.7h1.8v-7.2c0-2.6-1.3-4-3.7-4-1.7 0-3 .7-3.6 2.1h-.1v-2h-1.7v11.1Zm15.6-14v3h-3v1.5h3v6.2c0 2.3 1.2 3.4 4 3.4l2.1-.1v-1.5h-2c-1.6 0-2.4-.6-2.4-1.8v-6.2h4.4v-1.5h-4.5v-3H286Zm17.7 11.2c-.3 1-1.4 1.5-2.7 1.5-2 0-3.1-1.3-3.1-3.3v-.5h7.5v-1c0-3.2-1.7-5.1-4.6-5.1-2.8 0-4.6 1.9-4.6 4.8v1.6c0 3.2 1.7 5 4.8 5 2.3 0 4-1.2 4.4-3h-1.7Zm-2.9-7c1.8 0 2.9 1.3 2.9 3.4h-5.8c0-2.1 1-3.4 3-3.4Zm12.3 4.9c0-2.9 1.5-4.5 4-4.5.5 0 1.2 0 1.7.3v-2l-1.6-.2c-2 0-3.5 1-3.9 3h-.2v-2.7H309v1.3h2.4v8.3h-2.2v1.4h7.4v-1.4H313V131Zm8.4-6.1 4 11h2l4-11h-2l-3 9.2h-.1l-3-9.2h-2Zm16.7 11.2c1.6 0 2.8-.7 3.3-1.8h.2v1.6h1.7v-7.6c0-2.3-1.5-3.6-4.1-3.6-2.3 0-4 1.2-4.2 3h1.7c.3-1 1.2-1.5 2.5-1.5 1.5 0 2.3.8 2.3 2.2v1l-3 .1c-2.5.2-3.9 1.3-3.9 3.3 0 2 1.4 3.3 3.5 3.3Zm.5-1.5c-1.4 0-2.3-.7-2.3-1.9 0-1.1.9-1.8 2.4-1.9l2.8-.1v1.3c0 1.5-1.2 2.6-2.9 2.6Zm18.3 1.3v-1.4h-3.6v-14h-5.5v1.5h3.8v12.5h-3.8v1.4h9.1Zm10.3-7.3c0-3.5-1-6.5-3-8.8h-1.8a14.2 14.2 0 0 1 0 17.5h1.7a13 13 0 0 0 3.1-8.7Zm10.7-.5c1 0 1.8-.8 1.8-1.8s-.8-2-1.8-2-1.9 1-1.9 2 .8 1.8 1.9 1.8Zm-1 11.2 2-6.6h-2.3l-1.3 6.6h1.7Zm9.9-2h1.3c2.5 0 3.3-.8 3.3-3.3v-2.3c0-1.5 1-2.5 3.3-2.2v-1.9c-2.4.3-3.3-.6-3.3-2.2V123c0-2.5-.8-3.3-3.3-3.3H387v1.4h1c1.6 0 1.9.4 1.9 2.1v2.8c0 1.4 1 2.3 3.1 2.4v.1c-2 0-3.1 1-3.1 2.5v2.7c0 1.8-.3 2.1-1.8 2.1H387v1.4Z"/><path fill="#6F42C1" d="M403.3 130.9c0-2.9 1.4-4.5 3.9-4.5.6 0 1.3 0 1.8.3v-2l-1.6-.2c-2.1 0-3.5 1-4 3h-.2v-2.7h-4v1.3h2.4v8.3h-2.2v1.4h7.3v-1.4h-3.4V131Zm16.3 2.1c-.3 1-1.4 1.5-2.8 1.5-1.8 0-3-1.3-3-3.3v-.5h7.5v-1c0-3.2-1.7-5.1-4.6-5.1-2.8 0-4.7 1.9-4.7 4.8v1.6c0 3.2 1.8 5 4.8 5 2.4 0 4.1-1.2 4.4-3h-1.6Zm-2.9-7c1.8 0 2.9 1.3 2.9 3.4h-5.8c0-2.1 1-3.4 2.9-3.4Zm8.3 9.8h1.7v-6.5c0-1.9 1.2-3.2 3-3.2 1.7 0 2.5 1 2.5 3v6.7h1.8v-7.2c0-2.6-1.3-4-3.7-4-1.7 0-3 .7-3.6 2.1h-.1v-2h-1.7v11.1Zm16.6.2c1.6 0 2.8-.7 3.3-1.9h.2v1.7h1.7v-15.4h-1.7v6h-.2c-.5-1.1-1.7-1.8-3.3-1.8-2.5 0-4.2 1.8-4.2 4.6v2.1c0 2.8 1.7 4.7 4.2 4.7Zm.5-1.6c-1.8 0-3-1.3-3-3.3v-1.6c0-2 1.2-3.4 3-3.4 1.9 0 3 1.3 3 3.4v1.6c0 2-1.1 3.3-3 3.3Zm16.1-1.4c-.3 1-1.3 1.5-2.7 1.5-2 0-3.1-1.3-3.1-3.3v-.5h7.5v-1c0-3.2-1.7-5.1-4.6-5.1-2.8 0-4.6 1.9-4.6 4.8v1.6c0 3.2 1.7 5 4.8 5 2.3 0 4-1.2 4.4-3h-1.7Zm-2.9-7c1.8 0 2.9 1.3 2.9 3.4h-5.8c0-2.1 1-3.4 3-3.4Zm12.3 4.9c0-2.9 1.5-4.5 4-4.5a4 4 0 0 1 1.8.3v-2l-1.6-.2c-2.2 0-3.5 1-4 3h-.2v-2.7h-4v1.3h2.4v8.3h-2.3v1.4h7.4v-1.4h-3.5V131Z"/><path fill="#414141" d="M478.7 128.5c0 3.4 1 6.4 3.1 8.7h1.7a14.2 14.2 0 0 1 0-17.5h-1.7a13 13 0 0 0-3 8.8Zm17.3 0c0-3.5-1-6.5-3-8.8h-1.7a14.2 14.2 0 0 1 0 17.5h1.7c2-2.3 3-5.3 3-8.7Zm14.7 8.7v-1.4h-1.1c-1.5 0-1.8-.3-1.8-2.1V131c0-1.5-1.1-2.4-3.2-2.5v-.1c2 0 3.2-1 3.2-2.4v-2.8c0-1.7.3-2 1.8-2h1v-1.5h-1.3c-2.5 0-3.3.8-3.3 3.3v2.3c0 1.6-.9 2.5-3.2 2.2v1.9c2.3-.3 3.2.7 3.2 2.2v2.3c0 2.5.8 3.3 3.3 3.3h1.4Z"/><path fill="#D32F2F" d="M519.2 130.9c0-2.9 1.4-4.5 3.9-4.5.6 0 1.3 0 1.8.3v-2l-1.6-.2c-2.2 0-3.5 1-4 3h-.2v-2.7h-4v1.3h2.4v8.3h-2.3v1.4h7.4v-1.4h-3.4V131Zm16.3 2.1c-.3 1-1.4 1.5-2.8 1.5-1.8 0-3-1.3-3-3.3v-.5h7.5v-1c0-3.2-1.7-5.1-4.6-5.1-2.8 0-4.7 1.9-4.7 4.8v1.6c0 3.2 1.8 5 4.8 5 2.4 0 4.1-1.2 4.4-3h-1.6Zm-2.9-7c1.8 0 2.9 1.3 2.9 3.4h-5.8c0-2.1 1-3.4 2.9-3.4Zm10.9-4.2v3h-3v1.5h3v6.2c0 2.3 1.2 3.4 4 3.4l2.1-.1v-1.5h-2c-1.6 0-2.4-.6-2.4-1.8v-6.2h4.5v-1.5h-4.5v-3h-1.7Zm19.2 3H561v6.5c0 1.8-1.2 3.1-3 3.1-1.7 0-2.6-1-2.6-3v-6.6h-1.7v7.1c0 2.7 1.3 4.1 3.7 4.1 1.7 0 3-.8 3.5-2.1h.2v2h1.6v-11.1Zm8 6.1c0-2.9 1.4-4.5 3.9-4.5.6 0 1.3 0 1.8.3v-2l-1.6-.2c-2.1 0-3.5 1-4 3h-.2v-2.7h-4v1.3h2.4v8.3h-2.2v1.4h7.3v-1.4h-3.4V131Zm8.8 4.9h1.7v-6.5c0-1.9 1.2-3.2 3-3.2s2.6 1 2.6 3v6.7h1.7v-7.2c0-2.6-1.3-4-3.7-4-1.7 0-3 .7-3.5 2.1h-.2v-2h-1.6v11.1Z"/><path fill="#414141" d="M594.6 128.5c0 3.4 1 6.4 3.1 8.7h1.7a14.2 14.2 0 0 1 0-17.5h-1.7a13 13 0 0 0-3 8.8Zm19.5-3.2v-2l-8.7 5.2v1.5l8.7 5.2v-2l-7-3.8v-.2l7-3.9Z"/><path fill="#22863A" d="M622 136c1.5 0 2.7-.7 3.2-1.9h.2v1.7h1.7v-15.4h-1.7v6h-.2c-.5-1.1-1.7-1.8-3.3-1.8-2.5 0-4.2 1.8-4.2 4.6v2.1c0 2.8 1.7 4.7 4.2 4.7Zm.4-1.6c-1.8 0-3-1.3-3-3.3v-1.6c0-2 1.2-3.4 3-3.4s3 1.3 3 3.4v1.6c0 2-1.2 3.3-3 3.3Zm13.3-12.4c.8 0 1.4-.6 1.4-1.4 0-.8-.6-1.4-1.4-1.4-.8 0-1.4.6-1.4 1.4 0 .8.6 1.4 1.4 1.4Zm4.6 13.8v-1.4h-3.6v-9.6h-5.5v1.4h3.8v8.2h-3.8v1.4h9.1Zm3.1-11 4 11h2l4-11h-1.9l-3 9.2h-.2l-3-9.2h-2Z"/><path fill="#414141" d="m656.9 125.3 7 3.9v.2l-7 3.9v2l8.7-5.3v-1.5l-8.7-5.1v2Zm12.2 6.6c.2 2.6 2.1 4.2 5.2 4.2 3 0 5-1.7 5-4.3 0-2.2-1.2-3.5-4-4.2l-1.3-.3c-2-.5-2.7-1.2-2.7-2.5 0-1.5 1.1-2.4 3-2.4 1.7 0 2.8 1 3 2.4h1.8c-.2-2.4-2-4-4.8-4-3 0-4.8 1.6-4.8 4.1 0 2.2 1.2 3.5 4 4.1l1.2.4c2 .4 2.8 1.2 2.8 2.5 0 1.6-1.3 2.6-3.2 2.6-2 0-3.3-1-3.4-2.6H669ZM690 133c-.3 1-1.3 1.5-2.7 1.5-2 0-3.1-1.3-3.1-3.3v-.5h7.5v-1c0-3.2-1.7-5.1-4.6-5.1-2.8 0-4.6 1.9-4.6 4.8v1.6c0 3.2 1.7 5 4.8 5 2.3 0 4-1.2 4.4-3H690Zm-2.9-7c1.8 0 2.9 1.3 2.9 3.4h-5.8c0-2.1 1-3.4 3-3.4Zm17.4 2.2c-.3-2.3-2-3.7-4.4-3.7-3 0-4.8 1.9-4.8 5v1.5c0 3.2 1.8 5 4.8 5 2.4 0 4.1-1.4 4.4-3.6h-1.7c-.2 1.2-1.3 2-2.7 2-2 0-3-1.3-3-3.6v-1c0-2.4 1-3.7 3-3.7 1.4 0 2.5.8 2.7 2.1h1.7Zm8.3 7.8c2.9 0 4.7-1.9 4.7-4.9v-1.6c0-3-1.8-5-4.7-5-3 0-4.8 2-4.8 5v1.6c0 3 1.8 5 4.8 5Zm0-10c1.9 0 3 1.4 3 3.6v1.4c0 2.1-1.1 3.5-3 3.5-2 0-3.1-1.4-3.1-3.5v-1.4c0-2.2 1.2-3.5 3-3.5Zm8.3 9.8h1.8v-6.5c0-1.9 1.2-3.2 3-3.2 1.7 0 2.5 1 2.5 3v6.7h1.8v-7.2c0-2.6-1.4-4-3.8-4-1.6 0-2.9.7-3.5 2.1h-.1v-2H721v11.1Zm16.7.2c1.6 0 2.8-.7 3.3-1.9h.2v1.7h1.7v-15.4h-1.7v6h-.2c-.5-1.1-1.7-1.8-3.3-1.8-2.5 0-4.2 1.8-4.2 4.6v2.1c0 2.8 1.7 4.7 4.2 4.7Zm.5-1.6c-1.8 0-3-1.3-3-3.3v-1.6c0-2 1.2-3.4 3-3.4s3 1.3 3 3.4v1.6c0 2-1.2 3.3-3 3.3Zm9.1-6.7c0 1.6 1 2.6 3 3l1.6.5c1.4.3 2 .7 2 1.6 0 1-1 1.8-2.5 1.8s-2.4-.6-2.7-1.7h-1.7c.1 2 1.8 3.1 4.3 3.1 2.6 0 4.3-1.3 4.3-3.4 0-1.5-1-2.5-3.1-3l-1.6-.3c-1.3-.3-2-.8-2-1.7 0-1 1-1.6 2.4-1.6 1.3 0 2.2.6 2.4 1.5h1.7c-.2-1.8-1.8-3-4-3-2.5 0-4.1 1.3-4.1 3.2Zm16.9.3c1 0 1.8-.8 1.8-1.8s-.8-2-1.8-2-1.9 1-1.9 2 .9 1.8 1.9 1.8Zm0 7.9c1 0 1.8-.9 1.8-2 0-1-.8-1.8-1.8-1.8s-1.9.9-1.9 1.9a2 2 0 0 0 1.9 1.9ZM8.5 167v-1.4H7.4c-1.5 0-1.8-.3-1.8-2.1v-2.7c0-1.5-1-2.4-3.1-2.5v-.1c2 0 3-1 3-2.4V153c0-1.7.4-2 1.9-2h1.1v-1.5H7.1c-2.4 0-3.2.8-3.2 3.3v2.3c0 1.6-1 2.5-3.3 2.2v1.9c2.4-.3 3.3.7 3.3 2.2v2.3c0 2.5.8 3.3 3.2 3.3h1.4Z"/><path fill="#1976D2" d="M15.5 151.6v3h-2.9v1.5h3v6.2c0 2.3 1.2 3.4 4 3.4l2.1-.1V164h-2c-1.6 0-2.4-.6-2.4-1.8V156h4.4v-1.5h-4.4v-3h-1.8Zm10.3 14h1.7v-6.5c0-1.9 1.2-3.1 3-3.1s2.6.9 2.6 2.9v6.7h1.7v-7.2c0-2.6-1.3-4-3.7-4-1.7 0-3 .7-3.5 2.1h-.2v-6.3h-1.6v15.4Zm17.6-13.8c.8 0 1.4-.6 1.4-1.4 0-.8-.6-1.4-1.4-1.4-.8 0-1.5.6-1.5 1.4 0 .8.7 1.4 1.5 1.4Zm4.6 13.8v-1.4h-3.7v-9.6H39v1.4h3.7v8.2H39v1.4h9Zm4-8.1c0 1.6 1 2.6 3 3l1.7.5c1.4.3 1.9.7 1.9 1.6 0 1-1 1.8-2.5 1.8-1.4 0-2.4-.6-2.6-1.7h-1.8c.2 2 1.9 3.1 4.4 3.1 2.6 0 4.3-1.3 4.3-3.4 0-1.5-1-2.5-3.1-3l-1.6-.3c-1.4-.3-2-.8-2-1.7 0-1 1-1.6 2.4-1.6 1.3 0 2.2.6 2.4 1.5h1.7c-.3-1.8-1.8-3-4.1-3-2.4 0-4 1.3-4 3.2Z"/><path fill="#414141" d="M69 165.7c1 0 1.8-.9 1.8-2 0-1-.9-1.8-1.9-1.8-1 0-1.8.9-1.8 1.9 0 1 .8 1.9 1.8 1.9Z"/><path fill="#1976D2" d="M77.8 157.5c0 1.6 1 2.6 3 3l1.6.5c1.4.3 2 .7 2 1.6 0 1-1 1.8-2.5 1.8-1.4 0-2.4-.6-2.7-1.7h-1.7c.2 2 1.8 3.1 4.3 3.1 2.6 0 4.3-1.3 4.3-3.4 0-1.5-1-2.5-3-3l-1.6-.3c-1.4-.3-2-.8-2-1.7 0-1 1-1.6 2.3-1.6 1.3 0 2.2.6 2.4 1.5H86c-.2-1.8-1.8-3-4-3-2.5 0-4.1 1.3-4.1 3.2Zm15-5.9v3h-3v1.5h3v6.2c0 2.3 1.3 3.4 4 3.4l2.2-.1V164h-2c-1.6 0-2.5-.6-2.5-1.8V156H99v-1.5h-4.5v-3h-1.7Zm13.6 14.2c1.6 0 2.8-.7 3.4-1.8h.1v1.6h1.7v-7.5c0-2.4-1.5-3.7-4-3.7-2.3 0-4 1.2-4.3 3h1.7c.3-1 1.2-1.5 2.5-1.5 1.5 0 2.4.8 2.4 2.2v1l-3 .1c-2.6.2-4 1.3-4 3.3 0 2 1.4 3.3 3.5 3.3Zm.5-1.5c-1.4 0-2.2-.7-2.2-1.9 0-1.1.8-1.8 2.3-1.9l2.9-.1v1.3c0 1.5-1.3 2.6-3 2.6Zm11.7-12.7v3h-3v1.5h3v6.2c0 2.3 1.2 3.4 4 3.4l2.1-.1V164h-2c-1.6 0-2.4-.6-2.4-1.8V156h4.4v-1.5h-4.4v-3h-1.7Zm17.7 11.2c-.3 1-1.3 1.5-2.7 1.5-2 0-3.1-1.3-3.1-3.3v-.5h7.5v-1c0-3.2-1.7-5.1-4.6-5.1-2.8 0-4.6 1.9-4.6 4.8v1.6c0 3.2 1.7 5 4.8 5 2.3 0 4-1.2 4.4-3h-1.7Zm-2.9-7c1.8 0 2.9 1.3 2.9 3.4h-5.8c0-2.1 1-3.4 3-3.4Z"/><path fill="#414141" d="M146.2 165.7c1 0 1.8-.9 1.8-2 0-1-.8-1.8-1.8-1.8s-1.9.9-1.9 1.9a2 2 0 0 0 1.9 1.9Zm8.8-8.2c0 1.6 1 2.6 3 3l1.7.5c1.4.3 2 .7 2 1.6 0 1-1 1.8-2.6 1.8-1.4 0-2.4-.6-2.6-1.7h-1.8c.2 2 1.9 3.1 4.4 3.1 2.6 0 4.3-1.3 4.3-3.4 0-1.5-1-2.5-3.1-3l-1.6-.3c-1.4-.3-2-.8-2-1.7 0-1 1-1.6 2.4-1.6 1.3 0 2.2.6 2.4 1.5h1.7c-.2-1.8-1.8-3-4-3-2.5 0-4.2 1.3-4.2 3.2Zm20 5.3c-.4 1-1.4 1.5-2.8 1.5-1.9 0-3-1.3-3-3.3v-.5h7.4v-1c0-3.2-1.7-5.1-4.5-5.1s-4.7 1.9-4.7 4.8v1.6c0 3.2 1.8 5 4.8 5 2.3 0 4-1.2 4.4-3h-1.7Zm-3-7c1.8 0 3 1.3 3 3.4h-6c0-2.1 1.1-3.4 3-3.4Zm17.4 2.2c-.3-2.3-2-3.7-4.4-3.7-3 0-4.7 1.9-4.7 5v1.5c0 3.2 1.7 5 4.7 5 2.5 0 4.1-1.4 4.4-3.6h-1.7c-.2 1.2-1.3 2-2.7 2-2 0-3-1.3-3-3.6v-1c0-2.4 1-3.7 3-3.7 1.4 0 2.5.8 2.7 2.1h1.7Zm8.3 7.8c3 0 4.8-1.9 4.8-4.9v-1.6c0-3-1.9-5-4.8-5-3 0-4.8 2-4.8 5v1.6c0 3 1.9 5 4.8 5Zm0-10c1.9 0 3 1.4 3 3.6v1.4c0 2.1-1.1 3.5-3 3.5s-3-1.4-3-3.5v-1.4c0-2.2 1.1-3.5 3-3.5Zm8.3 9.8h1.8v-6.5c0-1.9 1.2-3.2 3-3.2 1.7 0 2.6 1 2.6 3v6.7h1.7v-7.2c0-2.6-1.3-4-3.7-4-1.7 0-3 .7-3.5 2.1h-.2v-2h-1.6v11.1Zm16.8.2c1.5 0 2.7-.7 3.3-1.9h.2v1.7h1.6v-15.4h-1.7v6h-.2c-.5-1.1-1.7-1.8-3.2-1.8-2.6 0-4.3 1.8-4.3 4.6v2.1c0 2.8 1.7 4.7 4.3 4.7Zm.5-1.6c-1.9 0-3-1.3-3-3.3v-1.6c0-2 1.1-3.4 3-3.4 1.8 0 3 1.3 3 3.4v1.6c0 2-1.2 3.3-3 3.3Zm9-6.7c0 1.6 1 2.6 3 3l1.6.5c1.4.3 2 .7 2 1.6 0 1-1 1.8-2.5 1.8-1.4 0-2.4-.6-2.7-1.7H232c.2 2 1.8 3.1 4.3 3.1 2.7 0 4.4-1.3 4.4-3.4 0-1.5-1-2.5-3.2-3l-1.5-.3c-1.4-.3-2-.8-2-1.7 0-1 1-1.6 2.3-1.6 1.3 0 2.2.6 2.5 1.5h1.6c-.2-1.8-1.7-3-4-3-2.5 0-4.1 1.3-4.1 3.2Zm12.9 9.5h1.4c2.5 0 3.3-.8 3.3-3.3v-2.3c0-1.5.9-2.5 3.3-2.2v-1.9c-2.4.3-3.3-.6-3.3-2.2v-2.3c0-2.5-.8-3.3-3.3-3.3h-1.4v1.4h1.1c1.6 0 1.9.4 1.9 2.1v2.8c0 1.4 1 2.3 3 2.4v.1c-2 0-3 1-3 2.5v2.7c0 1.8-.3 2.1-1.9 2.1h-1v1.4Zm21.2-11.9v-2l-8.7 5.2v1.5l8.7 5.2v-2l-7-3.8v-.2l7-3.9Zm5.8 11.9 7.2-17.5h-1.7l-7.2 17.5h1.7Z"/><path fill="#22863A" d="M287.1 165.8c1.6 0 2.8-.7 3.3-1.9h.2v1.7h1.7v-15.4h-1.7v6h-.2c-.5-1.1-1.7-1.8-3.3-1.8-2.5 0-4.2 1.8-4.2 4.6v2.1c0 2.8 1.7 4.7 4.2 4.7Zm.5-1.6c-1.8 0-3-1.3-3-3.3v-1.6c0-2 1.2-3.4 3-3.4 1.9 0 3 1.3 3 3.4v1.6c0 2-1.1 3.3-3 3.3Zm13.3-12.4c.8 0 1.4-.6 1.4-1.4 0-.8-.6-1.4-1.4-1.4-.8 0-1.4.6-1.4 1.4 0 .8.6 1.4 1.4 1.4Zm4.6 13.8v-1.4H302v-9.6h-5.5v1.4h3.8v8.2h-3.8v1.4h9.1Zm3.1-11 4 11h2l4-11h-1.9l-3 9.2h-.2l-3-9.2h-1.9Z"/><path fill="#414141" d="m322.1 155.1 7 3.9v.2l-7 3.9v2l8.7-5.3v-1.5l-8.7-5.1v2Zm19.5 3.2c0-3.5-1-6.5-3.1-8.8h-1.7a14.2 14.2 0 0 1 0 17.5h1.7c2-2.3 3-5.3 3-8.7Zm10.6-.5c1 0 1.9-.8 1.9-1.8s-.9-2-1.9-2c-1 0-1.8 1-1.8 2s.8 1.8 1.8 1.8Zm-.9 11.2 2-6.6H351l-1.3 6.6h1.6Zm9.8-2h1.4c2.5 0 3.3-.8 3.3-3.3v-2.3c0-1.5.9-2.5 3.3-2.2v-1.9c-2.4.3-3.3-.6-3.3-2.2v-2.3c0-2.5-.8-3.3-3.3-3.3h-1.4v1.4h1.1c1.6 0 1.9.4 1.9 2.1v2.8c0 1.4 1 2.3 3 2.4v.1c-2 0-3 1-3 2.5v2.7c0 1.8-.3 2.1-1.9 2.1h-1v1.4Zm12.9 0h1.4c2.5 0 3.2-.8 3.2-3.3v-2.3c0-1.5 1-2.5 3.3-2.2v-1.9c-2.3.3-3.3-.6-3.3-2.2v-2.3c0-2.5-.7-3.3-3.2-3.3H374v1.4h1.1c1.5 0 1.8.4 1.8 2.1v2.8c0 1.4 1.1 2.3 3.2 2.4v.1c-2.1 0-3.2 1-3.2 2.5v2.7c0 1.8-.3 2.1-1.8 2.1H374v1.4Z"/><path fill="#1976D2" d="M390.4 160.7c0-2.9 1.5-4.5 3.9-4.5.6 0 1.3 0 1.8.3v-2l-1.6-.2c-2.1 0-3.5 1-3.9 3h-.2v-2.7h-4.1v1.3h2.4v8.3h-2.2v1.4h7.3v-1.4h-3.4v-3.5Zm13.3 5.1c3 0 4.8-1.9 4.8-4.9v-1.6c0-3-1.9-5-4.8-5s-4.8 2-4.8 5v1.6c0 3 2 5 4.8 5Zm0-10c2 0 3.1 1.4 3.1 3.6v1.4c0 2.1-1.2 3.5-3 3.5-2 0-3.1-1.4-3.1-3.5v-1.4c0-2.2 1.1-3.5 3-3.5Zm12.9 10c3 0 4.8-1.9 4.8-4.9v-1.6c0-3-1.9-5-4.8-5-3 0-4.8 2-4.8 5v1.6c0 3 1.9 5 4.8 5Zm0-10c1.9 0 3 1.4 3 3.6v1.4c0 2.1-1.1 3.5-3 3.5s-3-1.4-3-3.5v-1.4c0-2.2 1.1-3.5 3-3.5Zm11-4.2v3h-3v1.5h3v6.2c0 2.3 1.3 3.4 4 3.4l2.1-.1V164h-2c-1.5 0-2.4-.6-2.4-1.8V156h4.5v-1.5h-4.5v-3h-1.7Z"/><path fill="#6F42C1" d="M442.4 165.7c1 0 1.8-.9 1.8-2 0-1-.8-1.8-1.8-1.8s-1.9.9-1.9 1.9c0 1 .8 1.9 1.9 1.9Zm12.4-5c0-2.9 1.4-4.5 3.9-4.5.6 0 1.3 0 1.8.3v-2l-1.6-.2c-2.1 0-3.5 1-3.9 3h-.2v-2.7h-4.1v1.3h2.4v8.3h-2.2v1.4h7.3v-1.4h-3.4v-3.5Zm16.2 2.1c-.2 1-1.2 1.5-2.6 1.5-2 0-3.1-1.3-3.1-3.3v-.5h7.5v-1c0-3.2-1.7-5.1-4.6-5.1-2.8 0-4.6 1.9-4.6 4.8v1.6c0 3.2 1.7 5 4.8 5 2.3 0 4-1.2 4.4-3H471Zm-2.8-7c1.8 0 2.9 1.3 2.9 3.4h-5.8c0-2.1 1-3.4 3-3.4Zm8.3 9.8h1.7v-6.5c0-1.9 1.2-3.2 3-3.2s2.6 1 2.6 3v6.7h1.7v-7.2c0-2.6-1.3-4-3.7-4-1.7 0-3 .7-3.5 2.1h-.2v-2h-1.6v11.1Zm16.7.2c1.5 0 2.7-.7 3.3-1.9h.2v1.7h1.7v-15.4h-1.8v6h-.2c-.5-1.1-1.6-1.8-3.2-1.8-2.6 0-4.3 1.8-4.3 4.6v2.1c0 2.8 1.7 4.7 4.3 4.7Zm.5-1.6c-1.8 0-3-1.3-3-3.3v-1.6c0-2 1.2-3.4 3-3.4s3 1.3 3 3.4v1.6c0 2-1.2 3.3-3 3.3Zm16-1.4c-.3 1-1.3 1.5-2.7 1.5-1.9 0-3.1-1.3-3.1-3.3v-.5h7.5v-1c0-3.2-1.7-5.1-4.5-5.1s-4.7 1.9-4.7 4.8v1.6c0 3.2 1.8 5 4.8 5 2.3 0 4-1.2 4.4-3h-1.7Zm-2.8-7c1.7 0 2.8 1.3 2.8 3.4H504c0-2.1 1.1-3.4 3-3.4Zm12.3 4.9c0-2.9 1.4-4.5 3.9-4.5.6 0 1.3 0 1.8.3v-2l-1.6-.2c-2.1 0-3.5 1-4 3h-.1v-2.7H515v1.3h2.5v8.3h-2.2v1.4h7.3v-1.4h-3.4v-3.5Z"/><path fill="#414141" d="M530.3 158.3c0 3.4 1 6.4 3 8.7h1.8a14.2 14.2 0 0 1 0-17.5h-1.8a13 13 0 0 0-3 8.8Zm19.4-3.2v-2l-8.7 5.2v1.5l8.7 5.2v-2l-7-3.8v-.2l7-3.9Z"/><path fill="#1976D2" d="M559.1 165.6v-13h4.5v-1.7h-10.7v1.7h4.5v13h1.7Zm12.2-13.8c.8 0 1.5-.6 1.5-1.4 0-.8-.7-1.4-1.5-1.4s-1.4.6-1.4 1.4c0 .8.6 1.4 1.4 1.4Zm4.6 13.8v-1.4h-3.6v-9.6h-5.5v1.4h3.8v8.2h-3.8v1.4h9.1Zm13.4-8.1c0-2-.8-3.1-2.3-3.1-1.1 0-2 .6-2.3 1.7h-.2c-.2-1.1-1-1.7-2-1.7s-1.8.6-2 1.7h-.3v-1.5h-1.5v11h1.5v-7.4c0-1.4.6-2.3 1.6-2.3s1.5.7 1.5 2v7.7h1.5v-7.4c0-1.4.6-2.3 1.6-2.3.9 0 1.4.7 1.4 2v7.7h1.5v-8.1Zm10.6 5.3c-.3 1-1.4 1.5-2.8 1.5-1.8 0-3-1.3-3-3.3v-.5h7.5v-1c0-3.2-1.7-5.1-4.6-5.1-2.8 0-4.7 1.9-4.7 4.8v1.6c0 3.2 1.8 5 4.8 5 2.4 0 4.1-1.2 4.4-3H600Zm-2.9-7c1.8 0 2.9 1.3 2.9 3.4H594c0-2.1 1-3.4 2.9-3.4Zm12.3 4.9c0-2.9 1.5-4.5 3.9-4.5.6 0 1.3 0 1.8.3v-2l-1.6-.2c-2.1 0-3.5 1-3.9 3h-.2v-2.7h-4.1v1.3h2.4v8.3h-2.2v1.4h7.3v-1.4h-3.4v-3.5Z"/><path fill="#414141" d="m632.8 167 7.1-17.5h-1.7l-7.1 17.5h1.7Zm11.2-11.9 7 3.9v.2l-7 3.9v2l8.8-5.3v-1.5l-8.8-5.1v2Zm19.5 3.2c0-3.5-1-6.5-3-8.8h-1.8a14.2 14.2 0 0 1 0 17.5h1.7c2-2.3 3-5.3 3-8.7Zm10.6-.5c1 0 1.9-.8 1.9-1.8s-.9-2-1.9-2c-1 0-1.8 1-1.8 2s.8 1.8 1.8 1.8Zm-.8 11.2 1.9-6.6h-2.3l-1.3 6.6h1.7Z"/></svg>