<svg width="275" height="65" viewBox="0 0 375 65" fill="none" xmlns="http://www.w3.org/2000/svg">
<path d="M0 34.55C0.067 51.189 13.623 64.825 30.276 64.825C46.97 64.825 60.551 51.244 60.551 34.55V30.276C60.551 23.402 66.144 17.809 73.018 17.809C76.9139 17.809 80.3978 19.6051 82.6856 22.4125L102.26 22.4125C98.7888 9.51831 86.9951 0 73.019 0C56.325 0 42.743 13.582 42.743 30.276V34.55C42.743 41.425 37.15 47.016 30.277 47.016C23.403 47.016 17.81 41.425 17.81 34.55C17.81 32.583 16.215 30.988 14.248 30.988H3.562C1.595 30.989 0 32.583 0 34.55Z" fill="rgba(0,0,0,.07)"/>
<path d="M115.846 64.825C101.911 64.825 90.1453 55.2777 86.6359 42.4125L106.179 42.4125C108.467 45.2201 111.951 47.016 115.847 47.016C122.72 47.016 128.313 41.425 128.313 34.55V30.276C128.313 13.582 141.895 0 158.589 0H158.591H158.593C175.072 0 188.517 13.2322 188.863 29.6285L188.954 34.55C188.954 41.425 194.547 47.016 201.421 47.016C205.316 47.016 208.801 45.2201 211.088 42.4125L230.66 42.4125C227.19 55.3069 215.396 64.825 201.42 64.825C184.767 64.825 171.211 51.189 171.144 34.55L171.054 30.108C171.053 30.0482 171.052 29.9886 171.05 29.9291C170.866 23.2148 165.347 17.809 158.588 17.809C151.714 17.809 146.121 23.402 146.121 30.276V34.55C146.121 51.244 132.54 64.825 115.846 64.825Z" fill="rgba(0,0,0,.07)"/>
<path d="M234.495 22.4125C236.783 19.6051 240.267 17.809 244.162 17.809C251.037 17.809 256.629 23.402 256.629 30.276C256.629 32.243 258.224 33.838 260.191 33.838H270.877C272.845 33.838 274.439 32.243 274.439 30.276C274.439 13.582 260.858 0 244.163 0C230.188 0 218.394 9.51831 214.923 22.4125L234.495 22.4125Z" fill="rgba(0,0,0,.07)"/>
</svg>
